<svg xmlns="http://www.w3.org/2000/svg" xmlns:ns3="http://www.openswatchbook.org/uri/2009/osb" id="svg1" width="16" height="16" version="1.1"><title id="title13694">MyPaint symbolic icons</title><metadata id="metadata7"/><g id="layer1" transform="translate(-96 -876.36)"><g id="layer2" fill="#859f46" display="none" opacity=".5" transform="translate(229.28 556.07)"><rect id="48x48" width="48" height="48" x="-2.25" y="4.25" color="#000" display="inline"/><rect id="32x32" width="32" height="32" x="53.75" y="20.25" color="#000" display="inline"/><rect id="24x24" width="24" height="24" x="93.75" y="28.25" color="#000" display="inline"/><rect id="22x22" width="22" height="22" x="125.75" y="30.25" color="#000" display="inline"/></g><path style="block-progression:tb;text-indent:0;text-transform:none" id="path6682" fill="#bebebe" d="m102.97 890.39h-2.9688v-11h4.5625l3.4062 3.4062v5.5781l2 3.0156v-9.0313c-0.002-0.26843-0.11756-0.53419-0.3125-0.71875l-3.9688-3.9375c-0.18456-0.19494-0.45032-0.31049-0.71875-0.3125h-5.9688c-0.52358 0.00005-0.99995 0.47642-1 1v12 0.25 0.71875c0.00005 0.52358 0.47642 0.99995 1 1h5.0156z" color="#000" font-family="Sans" line-height="normal"/><path style="block-progression:tb;text-indent:0;text-transform:none" id="path3908-6-6" fill="#bebebe" d="m105.03 884.27c-0.32486-0.059-0.6669-0.0455-0.99404-0.003l0.9759 1.7287c0.20088 0.35507-0.0237 0.76283-0.45022 1.0091l-0.76991 0.44451c-0.43052 0.23932-0.91014 0.20778-1.1107-0.14747l-0.97565-1.7288c-0.20685 0.25617-0.39602 0.54042-0.51415 0.84765-0.56538 1.4706 0.23676 2.8917 1.7916 3.1742 0.32485 0.0591 0.66688 0.0455 0.99402 0.003 0.0263-0.004 1.5184 2.765 1.5184 2.765h3.5l-2.6624-4.0677c0.20681-0.25617 0.37073-0.54378 0.48887-0.85103 0.56534-1.4706-0.23679-2.8917-1.7916-3.1741z" color="#000" font-family="Sans" line-height="normal"/></g></svg>