<svg xmlns="http://www.w3.org/2000/svg" xmlns:ns3="http://www.openswatchbook.org/uri/2009/osb" id="svg1" width="16.002" height="16" version="1.1"><title id="title13694">MyPaint symbolic icons</title><metadata id="metadata7"/><g id="layer1" transform="translate(-336 -716.36)"><g id="layer2" fill="#859f46" display="none" opacity=".5" transform="translate(229.28 556.07)"><rect id="48x48" width="48" height="48" x="-2.25" y="4.25" color="#000" display="inline"/><rect id="32x32" width="32" height="32" x="53.75" y="20.25" color="#000" display="inline"/><rect id="24x24" width="24" height="24" x="93.75" y="28.25" color="#000" display="inline"/><rect id="22x22" width="22" height="22" x="125.75" y="30.25" color="#000" display="inline"/></g><path id="path3896-6-4-5" fill="#bebebe" d="m344 717.36-3 3h6z"/><path style="block-progression:tb;text-indent:0;text-transform:none" id="path3955-5-1" fill="#bebebe" d="m343.88 719.34a1.0001 1.0001 0 0 0 -0.88 1.04v8a1.0001 1.0001 0 1 0 2 0v-8a1.0001 1.0001 0 0 0 -1.125 -1.0312z" color="#000" font-family="Sans" line-height="normal"/><path style="block-progression:tb;text-indent:0;text-transform:none" id="path3955-5-1-0" fill="#bebebe" d="m339.81 723.38a1.0044 1.0044 0 1 0 0.1875 2h8a1.0001 1.0001 0 1 0 0 -2h-8a1.0001 1.0001 0 0 0 -0.1875 0z" color="#000" font-family="Sans" line-height="normal"/><path id="path3896-6-4-5-1" fill="#bebebe" d="m351 724.36-3-3v6z"/><path id="path3896-6-4-5-3" fill="#bebebe" d="m337 724.36 3 3v-6z"/><path id="path3896-6-4-5-11" fill="#bebebe" d="m344 731.36 3-3h-6z"/><path style="block-progression:tb;text-indent:0;text-transform:none" id="use4649-5" fill="#bebebe" d="m336 717.38v0.5 3a0.50005 0.50005 0 1 0 1 0v-2.5h3.5a0.50005 0.50005 0 1 0 0 -1h-4-0.5zm11.344 0a0.50607 0.50607 0 1 0 0.15625 1h3.5v2.5a0.50005 0.50005 0 1 0 1 0v-3-0.5h-0.5-4a0.50005 0.50005 0 0 0 -0.15625 0zm-10.906 9.9688a0.50005 0.50005 0 0 0 -0.43 0.53v3 0.5h0.5 4a0.50005 0.50005 0 1 0 0 -1h-3.5v-2.5a0.50005 0.50005 0 0 0 -0.5625 -0.53125zm15 0a0.50005 0.50005 0 0 0 -0.43 0.53v2.5h-3.5a0.50005 0.50005 0 1 0 0 1h4 0.5v-0.5-3a0.50005 0.50005 0 0 0 -0.5625 -0.53125z" color="#000" font-family="Sans" line-height="normal" opacity=".3"/></g></svg>