<svg xmlns="http://www.w3.org/2000/svg" xmlns:ns3="http://www.openswatchbook.org/uri/2009/osb" id="svg1" width="16" height="16" version="1.1"><title id="title13694">MyPaint symbolic icons</title><metadata id="metadata7"/><g id="layer1" transform="translate(-336 -524.36)"><path id="rect3861-4-9" fill="#bebebe" d="m339 536.86h10c1 0 2-1 2-2v3c0 1-1 2-2 2h-10c-1 0-1.5-0.5-1.5-1.5s0.5-1.5 1.5-1.5z" color="#000" opacity=".3"/><path id="rect24024-5-7-1-7-8-2-5-87-5-0" fill="#bebebe" d="m338.5 524.36c-0.5 0-1.5 0.5-1.5 1.5v13c0 1 1 1.5 1.5 1.5h10.5c1 0 2-1 2-2v-1c0 1-1 2-2 2h-10c-0.5 0-1-0.5-1-1s0.49998-1 1-1h10c1 0 2-0.99998 2-2v-9c0-1-1-2-2-2h-10.5zm2.5 2h2v4.5l4.5-4.5h0.5v9h-0.5l-4.5-4.5v4.5h-2v-9z" color="#000"/><g id="layer2" fill="#859f46" display="none" opacity=".5" transform="translate(229.28 556.07)"><rect id="48x48" width="48" height="48" x="-2.25" y="4.25" color="#000" display="inline"/><rect id="32x32" width="32" height="32" x="53.75" y="20.25" color="#000" display="inline"/><rect id="24x24" width="24" height="24" x="93.75" y="28.25" color="#000" display="inline"/><rect id="22x22" width="22" height="22" x="125.75" y="30.25" color="#000" display="inline"/></g></g></svg>