<svg xmlns="http://www.w3.org/2000/svg" id="svg1" width="16" height="16" version="1.1"><metadata id="metadata7"/><g id="layer1" transform="translate(-32 -692.36)"><path id="path19686" fill="#bebebe" d="m36 701.35-1 1-2 2h11l3-3h-5v2h-4v-2h-2z" opacity=".3"/><path id="path19688" fill="#bebebe" d="m33 695.36 3-3h11l-3 3z"/><path id="path19690" fill="#bebebe" d="m39 702.35h2v-2.9883h2l-3-2.9883-3 2.9883h2z"/><path id="path19696" fill="#bebebe" d="m33 708.36 3-3.0117h11l-3 3.0117z"/><g id="layer2" fill="#859f46" display="none" opacity=".5" transform="translate(229.28 556.07)"><rect id="48x48" width="48" height="48" x="-2.25" y="4.25" color="#000" display="inline"/><rect id="32x32" width="32" height="32" x="53.75" y="20.25" color="#000" display="inline"/><rect id="24x24" width="24" height="24" x="93.75" y="28.25" color="#000" display="inline"/><rect id="22x22" width="22" height="22" x="125.75" y="30.25" color="#000" display="inline"/></g></g></svg>