<svg xmlns="http://www.w3.org/2000/svg" xmlns:ns3="http://www.openswatchbook.org/uri/2009/osb" id="svg1" width="16" height="16" version="1.1"><metadata id="metadata7"/><g id="layer1" transform="translate(-80 -884.36)"><path style="block-progression:tb;text-indent:0;text-transform:none" id="path10839-9" fill="#bebebe" d="m84 888.36h1c0.01037-0.00012 0.02079-0.00046 0.03125 0 0.25495 0.0112 0.50987 0.12858 0.6875 0.3125l2.281 2.29 2.3125-2.2812c0.26562-0.2305 0.44667-0.3055 0.6875-0.3125h1v1c0 0.28647-0.03434 0.55065-0.25 0.75l-2.2812 2.2812 2.25 2.25c0.18819 0.18817 0.28124 0.45345 0.28125 0.71875v1h-1c-0.2653-0.00001-0.53059-0.0931-0.71875-0.28125l-2.281-2.29-2.2812 2.2812c-0.18816 0.18819-0.45346 0.28125-0.71875 0.28125h-1v-1c-0.000003-0.26529 0.09306-0.53058 0.28125-0.71875l2.2812-2.25-2.2812-2.2812c-0.21074-0.19463-0.30316-0.46925-0.28125-0.75v-1z" color="#bebebe" enable-background="new" font-family="Andale Mono" line-height="normal"/><g id="layer2" fill="#859f46" display="none" opacity=".5" transform="translate(229.28 556.07)"><rect id="48x48" width="48" height="48" x="-2.25" y="4.25" color="#000" display="inline"/><rect id="32x32" width="32" height="32" x="53.75" y="20.25" color="#000" display="inline"/><rect id="24x24" width="24" height="24" x="93.75" y="28.25" color="#000" display="inline"/><rect id="22x22" width="22" height="22" x="125.75" y="30.25" color="#000" display="inline"/></g></g></svg>