<svg xmlns="http://www.w3.org/2000/svg" id="svg1" width="16" height="16" version="1.1"><metadata id="metadata7"/><g id="layer1" transform="translate(-240 -556.36)"><g id="layer2" fill="#859f46" display="none" opacity=".5" transform="translate(229.28 556.07)"><rect id="48x48" width="48" height="48" x="-2.25" y="4.25" color="#000" display="inline"/><rect id="32x32" width="32" height="32" x="53.75" y="20.25" color="#000" display="inline"/><rect id="24x24" width="24" height="24" x="93.75" y="28.25" color="#000" display="inline"/><rect id="22x22" width="22" height="22" x="125.75" y="30.25" color="#000" display="inline"/></g><path style="block-progression:tb;text-indent:0;text-transform:none" id="path3243" fill="#bebebe" d="m240.76 557.35 2.7589 4.1139 3.2892 3.6082 3.2892 3.6082 3.7143 3.2147-2.4914-4.182-3.2892-3.6131-3.2892-3.6131z" color="#000" font-family="Sans" line-height="normal"/><path style="block-progression:tb;text-indent:0;text-transform:none" id="path3247" fill="#bebebe" d="m244.33 556.91c1.7266 1.1125 4.8936 2.3775 6.7166 5.1168 1.5273 2.295 2.0406 2.9967 3.7296 7.8771-0.38585-5.7188-0.86725-6.7856-2.3693-9.0309-1.588-2.3737-5.8126-3.6174-8.0768-3.963z" color="#000" font-family="Sans" line-height="normal"/></g></svg>