<svg xmlns="http://www.w3.org/2000/svg" xmlns:ns3="http://www.openswatchbook.org/uri/2009/osb" id="svg1" width="16" height="16" version="1.1"><metadata id="metadata7"/><g id="layer1" transform="translate(-384 -524.36)"><path style="block-progression:tb;text-indent:0;text-transform:none" id="use24343" fill="#bebebe" d="m388 532.36c-2.2032 0-4 1.7968-4 4s1.7968 4 4 4 4-1.7968 4-4-1.7968-4-4-4zm0 1c1.6628 0 3 1.3372 3 3s-1.3372 3-3 3-3-1.3372-3-3 1.3372-3 3-3z" color="#000" font-family="Sans" line-height="normal"/><path style="block-progression:tb;text-indent:0;text-transform:none" id="path24341" fill="#bebebe" d="m392 525.36c-2.2032 0-4 1.7968-4 4s1.7968 4 4 4 4-1.7968 4-4-1.7968-4-4-4zm0 1c1.6628 0 3 1.3372 3 3s-1.3372 3-3 3-3-1.3372-3-3 1.3372-3 3-3z" color="#000" font-family="Sans" line-height="normal"/><path id="path14496" fill="#bebebe" d="m49.542-7.5a2.7708 2.5 0 1 1 -5.5417 0 2.7708 2.5 0 1 1 5.5417 0z" transform="matrix(.72180 0 0 .8 362.24 542.36)"/><path style="block-progression:tb;text-indent:0;text-transform:none" id="use24345" fill="#bebebe" d="m396 532.36c-2.2032 0-4 1.7968-4 4s1.7968 4 4 4 4-1.7968 4-4-1.7968-4-4-4zm0 1c1.6628 0 3 1.3372 3 3s-1.3372 3-3 3-3-1.3372-3-3 1.3372-3 3-3z" color="#000" font-family="Sans" line-height="normal"/><path id="use24347" fill="#bebebe" d="m49.542-7.5a2.7708 2.5 0 1 1 -5.5417 0 2.7708 2.5 0 1 1 5.5417 0z" opacity=".3" transform="matrix(.72180 0 0 .8 354.24 542.36)"/><g id="layer2" fill="#859f46" display="none" opacity=".5" transform="translate(229.28 556.07)"><rect id="48x48" width="48" height="48" x="-2.25" y="4.25" color="#000" display="inline"/><rect id="32x32" width="32" height="32" x="53.75" y="20.25" color="#000" display="inline"/><rect id="24x24" width="24" height="24" x="93.75" y="28.25" color="#000" display="inline"/><rect id="22x22" width="22" height="22" x="125.75" y="30.25" color="#000" display="inline"/></g></g></svg>