<svg xmlns="http://www.w3.org/2000/svg" id="svg1" width="16" height="16" version="1.1"><title id="title13694">MyPaint symbolic icons</title><metadata id="metadata7"/><g id="layer1" transform="translate(-416 -876.36)"><g id="layer2" fill="#859f46" display="none" opacity=".5" transform="translate(229.28 556.07)"><rect id="48x48" width="48" height="48" x="-2.25" y="4.25" color="#000" display="inline"/><rect id="32x32" width="32" height="32" x="53.75" y="20.25" color="#000" display="inline"/><rect id="24x24" width="24" height="24" x="93.75" y="28.25" color="#000" display="inline"/><rect id="22x22" width="22" height="22" x="125.75" y="30.25" color="#000" display="inline"/><rect id="16x16" width="16" height="16" x="155.75" y="36.25" color="#000" display="inline"/></g><path id="path23141-4-7" fill="#bebebe" d="m421.5 877.36c5.6472 0.52208 6.3383 4.2007 1 8-1.1522 0.82002-2.5 2-2.5 4 0 3 4 3 6 3l0.5-1c-1.5 0-5.5881-0.47523-2.5-4 1.8936-2.1613 4-4.0721 4-6 0-2.5-1-5-7-5z"/></g></svg>