<svg xmlns="http://www.w3.org/2000/svg" xmlns:ns3="http://www.openswatchbook.org/uri/2009/osb" id="svg1" width="16" height="16.013" version="1.1"><metadata id="metadata7"/><g id="layer1" transform="translate(-128 -876.36)"><g id="layer2" fill="#859f46" display="none" opacity=".5" transform="translate(229.28 556.07)"><rect id="48x48" width="48" height="48" x="-2.25" y="4.25" color="#000" display="inline"/><rect id="32x32" width="32" height="32" x="53.75" y="20.25" color="#000" display="inline"/><rect id="24x24" width="24" height="24" x="93.75" y="28.25" color="#000" display="inline"/><rect id="22x22" width="22" height="22" x="125.75" y="30.25" color="#000" display="inline"/></g><path style="block-progression:tb;text-indent:0;text-transform:none" id="path4561" fill="#bebebe" d="m136 876.38c-2.7496 0-5 2.2504-5 5 0 1.5862 0.84459 2.8721 2 3.7812v2.2188 1h1 4 1v-1-2.2188c1.1554-0.90914 2-2.195 2-3.7812 0-2.7496-2.2504-5-5-5zm0 2c1.6687 0 3 1.3313 3 3 0 1.1158-0.59507 2.0379-1.5 2.5625l-0.5 0.28125v0.59375 1.5625h-2v-1.5625-0.59375l-0.5-0.28125c-0.90493-0.52462-1.5-1.4466-1.5-2.5625 0-1.6687 1.3313-3 3-3z" color="#000" font-family="Sans" line-height="normal"/><path style="block-progression:tb;text-indent:0;text-transform:none" id="path4488-4" fill="#bebebe" d="m134 891.38v1h4v-1h-4z" color="#000" font-family="Sans" line-height="normal"/><path style="block-progression:tb;text-indent:0;text-transform:none" id="path4488-4-7" fill="#bebebe" d="m133 889.38v1h6v-1h-6z" color="#000" font-family="Sans" line-height="normal"/><path style="block-progression:tb;text-indent:0;text-transform:none" id="path4488-4-4" fill="#bebebe" d="m135 881.38v1h2v-1h-2z" color="#000" font-family="Sans" line-height="normal" opacity=".35"/></g></svg>