<svg xmlns="http://www.w3.org/2000/svg" id="svg1" width="16" height="16" version="1.1"><title id="title13694">MyPaint symbolic icons</title><metadata id="metadata7"/><g id="layer1" transform="translate(-496 -748.36)"><g id="layer2" fill="#859f46" display="none" opacity=".5" transform="translate(229.28 556.07)"><rect id="48x48" width="48" height="48" x="-2.25" y="4.25" color="#000" display="inline"/><rect id="32x32" width="32" height="32" x="53.75" y="20.25" color="#000" display="inline"/><rect id="24x24" width="24" height="24" x="93.75" y="28.25" color="#000" display="inline"/><rect id="22x22" width="22" height="22" x="125.75" y="30.25" color="#000" display="inline"/></g><path id="path2273-6-2-3-4-9" fill="#bebebe" fill-rule="evenodd" d="m509 748.36-7.5 8.5c-1.5-1.5-5.5002-0.50003-5.5 4.5l1.5-1.5c1-1 1.5-0.50003 2 0.0156l0.5 0.4844 0.5 0.50781c0.5 0.49216 1 0.99216 0 1.9922l-1.5 1.5c5-0.00003 5.5-3.5 4.5-5.5l8.5-7.5c0-2-1-3-3-3zm0.51518 1.0664c0.79161 0.00036 1.4332 0.64198 1.4336 1.4336-0.00035 0.79161-0.64198 1.4332-1.4336 1.4336-0.7916-0.00036-1.4332-0.64198-1.4336-1.4336 0.00036-0.79161 0.64199-1.4332 1.4336-1.4336z"/></g></svg>