<svg xmlns="http://www.w3.org/2000/svg" xmlns:svg="http://www.w3.org/2000/svg" id="svg7384" width="16" height="16" version="1.1"><metadata id="metadata12"/><g id="g35716" fill="#bebebe" stroke="none" transform="matrix(1,0,0,0.99836067,0,-0.00968157)"><path id="path35810" fill="#bebebe" stroke="none" d="m 9,2.0312 v 2 H 7 v 2 h 2 v 2 h 2 v -2 h 2 v -2 h -2 v -2 H 9 z"/></g><path id="path36400" fill="#bebebe" fill-opacity="1" stroke="none" stroke-width="2" d="M 3,1 A 1.0000747,1.0000747 0 0 0 2,2 l 0,13 a 1.0000747,1.0000747 0 0 0 1,1 l 10,0 a 1.0000747,1.0000747 0 0 0 1,-1 l 0,-5 a 1.0000747,1.0000747 0 1 0 -2,0 L 12,14 4,14 4,3 6,3 A 1.0000747,1.0000747 0 1 0 6,1 L 3,1 z" baseline-shift="baseline" color="#000" direction="ltr" display="inline" enable-background="accumulate" font-family="Sans" font-size="medium" font-stretch="normal" font-style="normal" font-variant="normal" font-weight="normal" letter-spacing="normal" overflow="visible" text-anchor="start" text-decoration="none" visibility="visible" word-spacing="normal" writing-mode="lr-tb" style="text-indent:0;text-align:start;line-height:normal;text-transform:none;block-progression:tb;marker:none;-inkscape-font-specification:Sans"/></svg>