<svg xmlns="http://www.w3.org/2000/svg" id="svg1" width="16" height="16" version="1.1"><title id="title13694">MyPaint symbolic icons</title><metadata id="metadata7"/><g id="layer1" transform="translate(-416 -812.36)"><g id="layer2" fill="#859f46" display="none" opacity=".5" transform="translate(229.28 556.07)"><rect id="48x48" width="48" height="48" x="-2.25" y="4.25" color="#000" display="inline"/><rect id="32x32" width="32" height="32" x="53.75" y="20.25" color="#000" display="inline"/><rect id="24x24" width="24" height="24" x="93.75" y="28.25" color="#000" display="inline"/><rect id="22x22" width="22" height="22" x="125.75" y="30.25" color="#000" display="inline"/><rect id="16x16" width="16" height="16" x="155.75" y="36.25" color="#000" display="inline"/></g><path font-family="sans-serif" style="text-decoration-color:#000;solid-color:#000;text-decoration-line:none;mix-blend-mode:normal;block-progression:tb;text-indent:0;white-space:normal;text-decoration-style:solid;isolation:auto;text-transform:none" id="path4351" fill="#bebebe" d="m421.5 813.36c-2.452 0-4.4512 2.0162-4.4512 4.4766s1.9992 4.4766 4.4512 4.4766 4.4512-2.0162 4.4512-4.4766-1.9992-4.4766-4.4512-4.4766zm0 1.5c1.6358 0 2.9512 1.3214 2.9512 2.9766s-1.3154 2.9766-2.9512 2.9766-2.9512-1.3214-2.9512-2.9766 1.3154-2.9766 2.9512-2.9766z" color="#000" color-rendering="auto" image-rendering="auto" line-height="normal" shape-rendering="auto" text-rendering="auto"/><circle id="path4362" cx="421.5" cy="817.86" r="1.075" fill="#bebebe" color="#000" color-rendering="auto" image-rendering="auto" shape-rendering="auto" text-rendering="auto" style="isolation:auto;mix-blend-mode:normal;solid-color:#000"/><path font-family="sans-serif" style="text-decoration-color:#000;solid-color:#000;text-decoration-line:none;mix-blend-mode:normal;block-progression:tb;text-indent:0;white-space:normal;text-decoration-style:solid;isolation:auto;text-transform:none" id="path5180" fill="#bebebe" d="m416.51 817.36a0.50005 0.50005 0 1 0 0 1h2.4922a0.50005 0.50005 0 1 0 0 -1h-2.4922z" color="#000" color-rendering="auto" image-rendering="auto" line-height="normal" shape-rendering="auto" text-rendering="auto"/><path font-family="sans-serif" style="text-decoration-color:#000;solid-color:#000;text-decoration-line:none;mix-blend-mode:normal;block-progression:tb;text-indent:0;white-space:normal;text-decoration-style:solid;isolation:auto;text-transform:none" id="path5180-1" fill="#bebebe" d="m424 817.36a0.50005 0.50005 0 1 0 0 1h2.5078a0.50005 0.50005 0 1 0 0 -1h-2.5078z" color="#000" color-rendering="auto" image-rendering="auto" line-height="normal" shape-rendering="auto" text-rendering="auto"/><path font-family="sans-serif" style="text-decoration-color:#000;solid-color:#000;text-decoration-line:none;mix-blend-mode:normal;block-progression:tb;text-indent:0;white-space:normal;text-decoration-style:solid;isolation:auto;text-transform:none" id="path5180-1-0" fill="#bebebe" d="m421.49 819.86a0.50005 0.50005 0 0 0 -0.49 0.5v2.5a0.50005 0.50005 0 1 0 1 0v-2.5a0.50005 0.50005 0 0 0 -0.50781 -0.50586z" color="#000" color-rendering="auto" image-rendering="auto" line-height="normal" shape-rendering="auto" text-rendering="auto"/><path font-family="sans-serif" style="text-decoration-color:#000;solid-color:#000;text-decoration-line:none;mix-blend-mode:normal;block-progression:tb;text-indent:0;white-space:normal;text-decoration-style:solid;isolation:auto;text-transform:none" id="path5180-1-6" fill="#bebebe" d="m421.49 812.36a0.50005 0.50005 0 0 0 -0.49 0.51v2.4922a0.50005 0.50005 0 1 0 1 0v-2.4922a0.50005 0.50005 0 0 0 -0.50781 -0.50781z" color="#000" color-rendering="auto" image-rendering="auto" line-height="normal" shape-rendering="auto" text-rendering="auto"/><path id="path23141-4" fill="#bebebe" d="m425.5 813.36c5.6472 0.52208 6.3383 4.2007 1 8-1.1522 0.82002-2.5 2-2.5 4 0 3 4 3 6 3l0.5-1c-1.5 0-5.5881-0.47523-2.5-4 1.8936-2.1613 4-4.0721 4-6 0-2.5-1-5-7-5z"/></g></svg>