<svg xmlns="http://www.w3.org/2000/svg" xmlns:ns3="http://www.openswatchbook.org/uri/2009/osb" id="svg1" width="16" height="16" version="1.1"><title id="title13694">MyPaint symbolic icons</title><metadata id="metadata7"/><g id="layer1" transform="translate(-96 -908.36)"><g id="layer2" fill="#859f46" display="none" opacity=".5" transform="translate(229.28 556.07)"><rect id="48x48" width="48" height="48" x="-2.25" y="4.25" color="#000" display="inline"/><rect id="32x32" width="32" height="32" x="53.75" y="20.25" color="#000" display="inline"/><rect id="24x24" width="24" height="24" x="93.75" y="28.25" color="#000" display="inline"/><rect id="22x22" width="22" height="22" x="125.75" y="30.25" color="#000" display="inline"/></g><path id="path2273-6-2-3" fill="#bebebe" fill-rule="evenodd" d="m110 908.36-1 1 2 2 1-1c0-1-1-2-2-2zm-2.3978 2.3977-6.6022 6.6023v2h2l6.6022-6.6023z"/><rect id="rect30216" width="8" height="2" x="96" y="909.36" fill="#bebebe"/><rect id="rect30218" width="4" height="2" x="96" y="913.36" fill="#bebebe"/><rect id="rect30220" width="3" height="2" x="96" y="917.36" fill="#bebebe"/><rect id="rect30222" width="12" height="2" x="96" y="921.36" fill="#bebebe"/></g></svg>