<svg xmlns="http://www.w3.org/2000/svg" xmlns:svg="http://www.w3.org/2000/svg" id="svg7384" width="16" height="16" version="1.1"><metadata id="metadata90"/><title id="title9167">Gnome Symbolic Icon Theme</title><g id="layer12" display="inline" transform="translate(-341.00015,-667)"><path id="path4772" fill="#bebebe" fill-opacity="1" stroke="none" stroke-width="2" d="m 346.5,673 c -1.92115,0 -3.5,1.57885 -3.5,3.5 0,1.92115 1.57885,3.5 3.5,3.5 l 0.5,0 0,-2 -0.5,0 c -0.84027,0 -1.5,-0.65973 -1.5,-1.5 0,-0.84027 0.65973,-1.5 1.5,-1.5 l 6.5,0 0,-2 -6.5,0 z" baseline-shift="baseline" color="#000" direction="ltr" display="inline" enable-background="accumulate" font-family="Sans" font-size="medium" font-stretch="normal" font-style="normal" font-variant="normal" font-weight="normal" letter-spacing="normal" overflow="visible" text-anchor="start" text-decoration="none" visibility="visible" word-spacing="normal" writing-mode="lr-tb" style="text-indent:0;text-align:start;line-height:normal;text-transform:none;block-progression:tb;marker:none;-inkscape-font-specification:Sans"/><path id="path4774" fill="#bebebe" fill-opacity="1" stroke="none" stroke-width="2" d="m 350.0002,670 0,1 c 0,0.25689 0.12983,0.52846 0.3125,0.71875 l 2.28125,2.28125 -2.28125,2.28125 c -0.18267,0.19029 -0.3125,0.46186 -0.3125,0.71875 l 0,1 1,0 c 0.30945,0 0.55232,-0.0903 0.75,-0.28125 L 355.40645,674 351.7502,670.28125 C 351.55252,670.0903 351.30965,670 351.0002,670 z" color="#bebebe" direction="ltr" display="inline" enable-background="accumulate" font-family="Bitstream Vera Sans" font-size="medium" font-stretch="normal" font-style="normal" font-variant="normal" font-weight="normal" letter-spacing="normal" overflow="visible" text-anchor="start" text-decoration="none" visibility="visible" word-spacing="normal" writing-mode="lr-tb" style="text-indent:0;text-align:start;line-height:normal;text-transform:none;block-progression:tb;marker:none;-inkscape-font-specification:Bitstream Vera Sans"/></g></svg>