<svg xmlns="http://www.w3.org/2000/svg" xmlns:svg="http://www.w3.org/2000/svg" id="svg1" width="16" height="16" version="1.1"><title id="title13694">MyPaint symbolic icons</title><metadata id="metadata7"/><rect id="48x48" width="48" height="48" x="245.81" y="-150.277" fill="#859f46" color="#000" display="none" opacity=".5"/><rect id="32x32" width="32" height="32" x="301.81" y="-134.277" fill="#859f46" color="#000" display="none" opacity=".5"/><rect id="24x24" width="24" height="24" x="341.81" y="-126.277" fill="#859f46" color="#000" display="none" opacity=".5"/><rect id="22x22" width="22" height="22" x="373.81" y="-124.277" fill="#859f46" color="#000" display="none" opacity=".5"/><g id="text2989" fill="#bebebe" fill-opacity="1" fill-rule="nonzero" stroke="none" stroke-width="1" color="#000" display="inline" font-family="Serif" font-size="40" font-stretch="normal" font-style="normal" font-variant="normal" font-weight="bold" letter-spacing="0" text-anchor="middle" visibility="visible" word-spacing="0" style="text-align:center;line-height:125%;marker:none;-inkscape-font-specification:Serif Bold"><g id="text2990" font-family="Arial" font-weight="normal" transform="translate(0.62109375,-1)" style="line-height:125%;marker:none;-inkscape-font-specification:Arial"><path font-size="medium" style="text-indent:0;text-align:start;line-height:125%;text-transform:none;block-progression:tb;marker:none;-inkscape-font-specification:Arial" id="path3018" fill="#bebebe" fill-opacity="1" fill-rule="nonzero" stroke="none" stroke-width="2" d="M 7.6445313,4 C 6.3789062,4 5.3789062,4.46012 4.3789062,5 l 0.8125,1.8125 C 6.3789063,6 6.9989932,6 7.5998771,6 8.200761,6 8.8008374,6.1579127 9.0351563,6.375 c 0.2343189,0.2170873 0.362168,0.5086409 0.34375,1 -0.013382,0.3569943 -0.264516,0.7543083 -0.71875,1.09375 C 8.2059223,8.8081917 7.5593056,9 7.3789063,9 6.8789062,9 6.3789062,9.5 6.3789062,10 l 10e-8,1.459262 C 6.3789062,12 6.3789062,12 6.8477217,12 l 1.0311845,0 c 0.5000001,0 0.5000001,0 0.5000001,-0.5 l 0,-0.875 c 0,-0.625 1.009773,-0.219514 1.46875,-0.5625 0.7706457,-0.5758912 1.4874637,-1.4568854 1.5312497,-2.625 0.03686,-0.9832172 -0.333314,-1.9135915 -1,-2.53125 C 9.7122203,4.2885915 8.6195402,4 7.6445313,4 z" baseline-shift="baseline" color="#000" direction="ltr" display="inline" enable-background="accumulate" font-family="Arial" font-stretch="normal" font-style="normal" font-variant="normal" font-weight="normal" letter-spacing="0" overflow="visible" text-anchor="start" text-decoration="none" visibility="visible" word-spacing="0" writing-mode="lr-tb"/><rect id="rect3788" width="2" height="2" x="6.379" y="13" fill="#bebebe" fill-opacity="1" fill-rule="nonzero" stroke="none" stroke-width="2" color="#000" display="inline" enable-background="accumulate" overflow="visible" ry=".547" visibility="visible" style="marker:none"/></g></g></svg>