<svg xmlns="http://www.w3.org/2000/svg" xmlns:ns3="http://www.openswatchbook.org/uri/2009/osb" id="svg1" width="16.002" height="16" version="1.1"><title id="title13694">MyPaint symbolic icons</title><metadata id="metadata7"/><g id="layer1" transform="translate(-336 -620.36)"><g id="layer2" fill="#859f46" display="none" opacity=".5" transform="translate(229.28 556.07)"><rect id="48x48" width="48" height="48" x="-2.25" y="4.25" color="#000" display="inline"/><rect id="32x32" width="32" height="32" x="53.75" y="20.25" color="#000" display="inline"/><rect id="24x24" width="24" height="24" x="93.75" y="28.25" color="#000" display="inline"/><rect id="22x22" width="22" height="22" x="125.75" y="30.25" color="#000" display="inline"/></g><path id="path3228-0" fill="#bebebe" d="m344 621.36v6h0.5l2.5-3-2.5-3z"/><path style="block-progression:tb;text-indent:0;text-transform:none" id="path3081" fill="#bebebe" d="m349 628.27a1.0011 1.0011 0 1 0 -2 0.0937c0 1.6687-1.3313 3-3 3s-3-1.3313-3-3 1.3313-3 3-3c0.26218 0 0.52801 0.0259 0.78125 0.0937a1.0005 1.0005 0 1 0 0.5 -1.9375c-0.42207-0.11309-0.8443-0.15625-1.2812-0.15625-2.7496 0-5 2.2504-5 5s2.2504 5 5 5 5-2.2504 5-5a1.0001 1.0001 0 0 0 0 -0.0937z" color="#000" font-family="Sans" line-height="normal"/><path style="block-progression:tb;text-indent:0;text-transform:none" id="use4649-3" fill="#bebebe" d="m336 621.38v0.5 3a0.50005 0.50005 0 1 0 1 0v-2.5h3.5a0.50005 0.50005 0 1 0 0 -1h-4-0.5zm11.344 0a0.50607 0.50607 0 1 0 0.15625 1h3.5v2.5a0.50005 0.50005 0 1 0 1 0v-3-0.5h-0.5-4a0.50005 0.50005 0 0 0 -0.15625 0zm-10.906 9.9688a0.50005 0.50005 0 0 0 -0.43 0.53v3 0.5h0.5 4a0.50005 0.50005 0 1 0 0 -1h-3.5v-2.5a0.50005 0.50005 0 0 0 -0.5625 -0.53125zm15 0a0.50005 0.50005 0 0 0 -0.43 0.53v2.5h-3.5a0.50005 0.50005 0 1 0 0 1h4 0.5v-0.5-3a0.50005 0.50005 0 0 0 -0.5625 -0.53125z" color="#000" font-family="Sans" line-height="normal" opacity=".3"/></g></svg>