<svg xmlns="http://www.w3.org/2000/svg" id="svg1" width="16" height="16" version="1.1"><metadata id="metadata7"/><g id="layer1" fill="#bebebe" transform="translate(-73 -907.36)"><path style="block-progression:tb;text-indent:0;text-transform:none" id="path12113" d="m74.781 916.36a1.0001 1.0001 0 0 0 -0.78125 1v4a1.0001 1.0001 0 0 0 1 1h4a1.0001 1.0001 0 1 0 0 -2h-3v-3a1.0001 1.0001 0 0 0 -1.2188 -1z" color="#000" enable-background="new" font-family="Sans" line-height="normal"/><path style="block-progression:tb;text-indent:0;text-transform:none" id="path12147" d="m79.375 915.86a1.0001 1.0001 0 0 0 -0.59375 0.28125l-4.5 4.5a1.0165 1.0165 0 1 0 1.4375 1.4375l4.5-4.5a1.0001 1.0001 0 0 0 -0.84375 -1.7188z" color="#000" enable-background="new" font-family="Sans" line-height="normal"/><rect id="rect12919" width="1" height="1" x="74" y="921.36" color="#000" enable-background="new"/><path style="block-progression:tb;text-indent:0;text-transform:none" id="path12111" d="m82.906 908.36a1.0011 1.0011 0 1 0 0.09375 2h3v3a1.0001 1.0001 0 1 0 2 0v-4a1.0001 1.0001 0 0 0 -1 -1h-4a1.0001 1.0001 0 0 0 -0.09375 0z" color="#000" enable-background="new" font-family="Sans" line-height="normal"/><rect id="rect12923" width="1" height="1" x="87" y="908.36" color="#000" enable-background="new"/><path style="block-progression:tb;text-indent:0;text-transform:none" id="path12925" d="m86.781 908.36a1.0001 1.0001 0 0 0 -0.5 0.28125l-4.5 4.4688a1.0165 1.0165 0 1 0 1.4375 1.4375l4.5-4.4688a1.0001 1.0001 0 0 0 -0.9375 -1.7188z" color="#000" enable-background="new" font-family="Sans" line-height="normal"/><rect id="rect4479-2" width="1" height="1" x="74" y="916.36" color="#000"/><rect id="rect4479-2-9" width="1" height="1" x="79" y="921.36" color="#000"/><rect id="rect4479-2-9-9-0-8" width="1" height="1" x="87" y="913.36" color="#000"/><rect id="rect4479-2-9-9-0-8-1" width="1" height="1" x="82" y="908.36" color="#000"/></g></svg>