<svg xmlns="http://www.w3.org/2000/svg" id="svg1" width="16" height="16.012" version="1.1"><metadata id="metadata7"/><g id="layer1" transform="translate(-32 -716.85)"><path id="path19706" fill="#bebebe" d="m44 723.87 1-1 2-2h-11l-3 3h5v-2h4v2h2z" opacity=".3"/><path id="path19708" fill="#bebebe" d="m47 729.86-3 3h-11l3-3z"/><path id="path19710" fill="#bebebe" d="m39 722.87h2v2.9883h2l-3 2.9883-3-2.9883h2z"/><path id="path19712" fill="#bebebe" d="m47 716.85-3 3.0117h-11l3-3.0117z"/><g id="layer2" fill="#859f46" display="none" opacity=".5" transform="translate(229.28 556.07)"><rect id="48x48" width="48" height="48" x="-2.25" y="4.25" color="#000" display="inline"/><rect id="32x32" width="32" height="32" x="53.75" y="20.25" color="#000" display="inline"/><rect id="24x24" width="24" height="24" x="93.75" y="28.25" color="#000" display="inline"/><rect id="22x22" width="22" height="22" x="125.75" y="30.25" color="#000" display="inline"/></g></g></svg>