<svg xmlns="http://www.w3.org/2000/svg" id="svg7384" width="16" height="16" version="1.1"><metadata id="metadata90"/><title id="title9167">Gnome Symbolic Icon Theme</title><g id="layer12" fill="#bebebe" transform="translate(-40,-688)"><path style="block-progression:tb;text-indent:0;text-transform:none" id="path3869" d="m47.5 688.01c-4.1303 0-7.4866 3.3563-7.4866 7.4866s3.3563 7.4866 7.4866 7.4866 7.4866-3.3563 7.4866-7.4866-3.3563-7.4866-7.4866-7.4866zm0 1.9732c3.0494 0 5.5134 2.464 5.5134 5.5134s-2.464 5.5134-5.5134 5.5134-5.5134-2.464-5.5134-5.5134 2.464-5.5134 5.5134-5.5134z" color="#000"/><path style="block-progression:tb;text-indent:0;text-transform:none" id="path4639" d="m50.406 692a0.50005 0.50005 0 0 0 -0.25 0.15625l-2.656 2.65-1.656-1.65a0.50005 0.50005 0 1 0 -0.6875 0.6875l2 2a0.50005 0.50005 0 0 0 0.6875 0l3-3a0.50005 0.50005 0 0 0 -0.438 -0.85z" color="#000"/></g></svg>