<svg xmlns="http://www.w3.org/2000/svg" id="svg1" width="16" height="16" version="1.1"><title id="title13694">MyPaint symbolic icons</title><metadata id="metadata7"/><g id="layer1" transform="translate(-496 -852.36)"><g id="layer2" fill="#859f46" display="none" opacity=".5" transform="translate(229.28 556.07)"><rect id="48x48" width="48" height="48" x="-2.25" y="4.25" color="#000" display="inline"/><rect id="32x32" width="32" height="32" x="53.75" y="20.25" color="#000" display="inline"/><rect id="24x24" width="24" height="24" x="93.75" y="28.25" color="#000" display="inline"/><rect id="22x22" width="22" height="22" x="125.75" y="30.25" color="#000" display="inline"/><rect id="16x16" width="16" height="16" x="155.75" y="36.25" color="#000" display="inline"/></g><path font-family="sans-serif" style="text-decoration-color:#000;solid-color:#000;text-decoration-line:none;mix-blend-mode:normal;block-progression:tb;text-indent:0;white-space:normal;text-decoration-style:solid;isolation:auto;text-transform:none" id="path4351-8" fill="#bebebe" d="m501.5 853.36c-2.452 0-4.4512 2.0162-4.4512 4.4766s1.9992 4.4766 4.4512 4.4766 4.4512-2.0162 4.4512-4.4766-1.9992-4.4766-4.4512-4.4766zm0 1.5c1.6358 0 2.9512 1.3214 2.9512 2.9766s-1.3154 2.9766-2.9512 2.9766-2.9512-1.3214-2.9512-2.9766 1.3154-2.9766 2.9512-2.9766z" color="#000" color-rendering="auto" image-rendering="auto" line-height="normal" shape-rendering="auto" text-rendering="auto"/><circle id="path4362-9" cx="501.5" cy="857.86" r="1.075" fill="#bebebe" color="#000" color-rendering="auto" image-rendering="auto" shape-rendering="auto" text-rendering="auto" style="isolation:auto;mix-blend-mode:normal;solid-color:#000"/><path font-family="sans-serif" style="text-decoration-color:#000;solid-color:#000;text-decoration-line:none;mix-blend-mode:normal;block-progression:tb;text-indent:0;white-space:normal;text-decoration-style:solid;isolation:auto;text-transform:none" id="path5180-7" fill="#bebebe" d="m496.51 857.36a0.50005 0.50005 0 1 0 0 1h2.4922a0.50005 0.50005 0 1 0 0 -1h-2.4922z" color="#000" color-rendering="auto" image-rendering="auto" line-height="normal" shape-rendering="auto" text-rendering="auto"/><path font-family="sans-serif" style="text-decoration-color:#000;solid-color:#000;text-decoration-line:none;mix-blend-mode:normal;block-progression:tb;text-indent:0;white-space:normal;text-decoration-style:solid;isolation:auto;text-transform:none" id="path5180-1-2" fill="#bebebe" d="m504 857.36a0.50005 0.50005 0 1 0 0 1h2.5078a0.50005 0.50005 0 1 0 0 -1h-2.5078z" color="#000" color-rendering="auto" image-rendering="auto" line-height="normal" shape-rendering="auto" text-rendering="auto"/><path font-family="sans-serif" style="text-decoration-color:#000;solid-color:#000;text-decoration-line:none;mix-blend-mode:normal;block-progression:tb;text-indent:0;white-space:normal;text-decoration-style:solid;isolation:auto;text-transform:none" id="path5180-1-0-9" fill="#bebebe" d="m501.49 859.86a0.50005 0.50005 0 0 0 -0.49 0.5v2.5a0.50005 0.50005 0 1 0 1 0v-2.5a0.50005 0.50005 0 0 0 -0.50781 -0.50586z" color="#000" color-rendering="auto" image-rendering="auto" line-height="normal" shape-rendering="auto" text-rendering="auto"/><path font-family="sans-serif" style="text-decoration-color:#000;solid-color:#000;text-decoration-line:none;mix-blend-mode:normal;block-progression:tb;text-indent:0;white-space:normal;text-decoration-style:solid;isolation:auto;text-transform:none" id="path5180-1-6-7" fill="#bebebe" d="m501.49 852.36a0.50005 0.50005 0 0 0 -0.49 0.51v2.4922a0.50005 0.50005 0 1 0 1 0v-2.4922a0.50005 0.50005 0 0 0 -0.50781 -0.50781z" color="#000" color-rendering="auto" image-rendering="auto" line-height="normal" shape-rendering="auto" text-rendering="auto"/><path id="path4760-9-0-7" fill="#bebebe" d="m512 857.36-2 4-3-1 1-8c2 0 4 1.5 4 5z" color="#000"/><path id="path5783-32-1-2" fill="#bebebe" d="m507.82 861.52c-0.91889-0.28822-1.9492-0.11799-2.7591 0.52727-0.62007 0.49396-1.0021 1.1541-1.1087 1.881-0.11021 0.75177 0.24423 1.8197-1.7198 3.5212-0.0132 0.004-0.0277 0.0118-0.0405 0.0178-0.1175 0.0507-0.2207 0.13414-0.27118 0.26277-0.101 0.257 0.009 0.52712 0.26597 0.62809 2.2149-0.17805 4.0888-0.25685 5.888-1.1539 0.32735-0.17953 0.51126-0.30346 0.71681-0.46722 1.2959-1.0324 1.5119-2.9142 0.47958-4.2101-0.38715-0.48595-0.89967-0.83388-1.451-1.0068z" color="#000"/></g></svg>