<svg xmlns="http://www.w3.org/2000/svg" xmlns:ns3="http://www.openswatchbook.org/uri/2009/osb" id="svg1" width="16" height="16" version="1.1"><metadata id="metadata7"/><g id="layer1" transform="translate(-32 -572.36)"><g id="layer2" fill="#859f46" display="none" opacity=".5" transform="translate(229.28 556.07)"><rect id="48x48" width="48" height="48" x="-2.25" y="4.25" color="#000" display="inline"/><rect id="32x32" width="32" height="32" x="53.75" y="20.25" color="#000" display="inline"/><rect id="24x24" width="24" height="24" x="93.75" y="28.25" color="#000" display="inline"/><rect id="22x22" width="22" height="22" x="125.75" y="30.25" color="#000" display="inline"/></g><path id="path5256" fill="#bebebe" d="m32 578.36 3-3h6l-3 3z"/><path id="path5262" fill="#bebebe" d="m32 582.36 3-3h6l-3 3z"/><path id="path5264" fill="#bebebe" d="m32 586.36 3-3h6l-3 3z"/><path id="path5272" fill="#bebebe" d="m46 575.36h-2c-0.007 3.5907-0.0325 5.4094 0 9h2c-0.10306-3.5895-0.0137-5.4086 0-9z"/><path id="path5274" fill="#bebebe" d="m45 586.36-3-4h6z"/></g></svg>