<svg xmlns="http://www.w3.org/2000/svg" xmlns:ns3="http://www.openswatchbook.org/uri/2009/osb" id="svg1" width="16" height="16" version="1.1"><title id="title13694">MyPaint symbolic icons</title><metadata id="metadata7"/><g id="layer1" transform="translate(-208 -620.36)"><g id="layer2" fill="#859f46" display="none" opacity=".5" transform="translate(229.28 556.07)"><rect id="48x48" width="48" height="48" x="-2.25" y="4.25" color="#000" display="inline"/><rect id="32x32" width="32" height="32" x="53.75" y="20.25" color="#000" display="inline"/><rect id="24x24" width="24" height="24" x="93.75" y="28.25" color="#000" display="inline"/><rect id="22x22" width="22" height="22" x="125.75" y="30.25" color="#000" display="inline"/></g><path id="path4066" fill="#bebebe" fill-rule="evenodd" d="m219.16 621.36c-0.0788 0.0161-0.1595 0.0696-0.21875 0.125l-4.2812 4 4.0312 4.3438 4.1562-3.875c0.23699-0.22144 0.17839-0.68283-0.125-1.0312l-2.7812-3.2188c-0.22754-0.26132-0.54469-0.39209-0.78125-0.34375z" color="#000"/><path id="rect34152" fill="#bebebe" fill-rule="evenodd" d="m213.5 626.58-2.3438 2.1875c-0.23699 0.22144-0.20964 0.68283 0.0937 1.0312l2.8125 3.2188c0.30339 0.34842 0.73176 0.44019 0.96875 0.21875l2.4688-2.3125-4-4.3438z" color="#000"/><path id="rect34161" fill="#bebebe" fill-rule="evenodd" d="m216.7 634.36c-0.3878 0-0.7 0.223-0.7 0.5s0.3122 0.5 0.7 0.5h1.4 4.2 0.7v-0.5-0.5h-0.7-4.2-1.4z" color="#000"/><path id="path34166" fill="#bebebe" fill-rule="evenodd" d="m211.3 634.36c0.3878 0 0.7 0.223 0.7 0.5s-0.3122 0.5-0.7 0.5h-2.3v-0.5-0.5h2.3z" color="#000"/></g></svg>