<svg xmlns="http://www.w3.org/2000/svg" xmlns:svg="http://www.w3.org/2000/svg" xmlns:xlink="http://www.w3.org/1999/xlink" id="svg2985" width="48" height="48" version="1.1"><metadata id="metadata2990"/><g id="layer1" display="inline" transform="translate(0,-4)"><g id="g5164"><g id="g4236"><path id="path3800-7" fill="none" stroke="#ce5c00" stroke-dasharray="none" stroke-linecap="round" stroke-linejoin="round" stroke-miterlimit="4" stroke-opacity="1" stroke-width="3" d="m 23.5,8.5 0,2" display="inline"/><path id="path3824" fill="none" stroke="#ce5c00" stroke-dasharray="none" stroke-linecap="round" stroke-linejoin="round" stroke-miterlimit="4" stroke-opacity="1" stroke-width="3" d="m 23.5,14.5 0,2" display="inline"/><path id="path3832" fill="none" stroke="#ce5c00" stroke-dasharray="none" stroke-linecap="round" stroke-linejoin="round" stroke-miterlimit="4" stroke-opacity="1" stroke-width="3" d="m 23.5,20.5 0,2" display="inline"/><path id="path3840" fill="none" stroke="#ce5c00" stroke-dasharray="none" stroke-linecap="round" stroke-linejoin="round" stroke-miterlimit="4" stroke-opacity="1" stroke-width="3" d="m 23.5,26.5 0,2" display="inline"/><path id="path3848" fill="none" stroke="#ce5c00" stroke-dasharray="none" stroke-linecap="round" stroke-linejoin="round" stroke-miterlimit="4" stroke-opacity="1" stroke-width="3" d="m 23.5,32.5 0,2" display="inline"/><path id="path3854" fill="none" stroke="#ce5c00" stroke-dasharray="none" stroke-linecap="round" stroke-linejoin="round" stroke-miterlimit="4" stroke-opacity="1" stroke-width="3" d="m 23.5,38.5 0,2" display="inline"/><path id="path3800" fill="#fcaf3e" stroke="#fcaf3e" stroke-linecap="round" stroke-linejoin="miter" stroke-opacity="1" stroke-width="1" d="m 23.5,8.5 0,2"/><path id="path3828" fill="#fcaf3e" stroke="#fcaf3e" stroke-linecap="round" stroke-linejoin="miter" stroke-opacity="1" stroke-width="1" d="m 23.5,14.5 0,2"/><path id="path3834" fill="#fcaf3e" stroke="#fcaf3e" stroke-linecap="round" stroke-linejoin="miter" stroke-opacity="1" stroke-width="1" d="m 23.5,20.5 0,2"/><path id="path3844" fill="#fcaf3e" stroke="#fcaf3e" stroke-linecap="round" stroke-linejoin="miter" stroke-opacity="1" stroke-width="1" d="m 23.5,26.5 0,2"/><path id="path3850" fill="#fcaf3e" stroke="#fcaf3e" stroke-linecap="round" stroke-linejoin="miter" stroke-opacity="1" stroke-width="1" d="m 23.5,32.5 0,2"/><path id="path3858" fill="#fcaf3e" stroke="#fcaf3e" stroke-linecap="round" stroke-linejoin="miter" stroke-opacity="1" stroke-width="1" d="m 23.5,38.5 0,2"/><path id="path3820" fill="none" stroke="#ce5c00" stroke-dasharray="none" stroke-linecap="round" stroke-linejoin="round" stroke-miterlimit="4" stroke-opacity="1" stroke-width="3" d="m 23.5,44.5 0,2" display="inline"/><path id="path3822" fill="#fcaf3e" stroke="#fcaf3e" stroke-linecap="round" stroke-linejoin="miter" stroke-opacity="1" stroke-width="1" d="m 23.5,44.5 0,2" display="inline"/></g><g id="g5052" transform="translate(-65,-4.5)"><path id="path4570-8-3-2-1" fill="none" stroke="#5c3566" stroke-dasharray="none" stroke-dashoffset="0" stroke-linecap="round" stroke-linejoin="miter" stroke-miterlimit="4" stroke-opacity="1" stroke-width="4" d="m 78,13.5 c -5,1 -8,5 -8,9 0,8.734956 12,13 12,20 0,3 -1.75532,9.03975 -12,9" color="#000" display="inline" enable-background="accumulate" overflow="visible" visibility="visible" style="marker:none"/><path id="path4570-8-3-2" fill="none" stroke="#ad7fa8" stroke-dasharray="none" stroke-dashoffset="0" stroke-linecap="round" stroke-linejoin="miter" stroke-miterlimit="4" stroke-opacity="1" stroke-width="2" d="m 78,13.5 c -5,1 -8,5 -8,9 0,8.734956 12,13 12,20 0,3 -1.75532,9.03975 -12,9" color="#000" display="inline" enable-background="accumulate" overflow="visible" visibility="visible" style="marker:none"/></g><use id="use5056" width="224" height="80" x="0" y="0" opacity=".667" transform="matrix(-1,0,0,1,47,0)" xlink:href="#g5052"/></g></g></svg>