<svg xmlns="http://www.w3.org/2000/svg" xmlns:ns3="http://www.openswatchbook.org/uri/2009/osb" id="svg1" width="16" height="16.001" version="1.1"><metadata id="metadata7"/><g id="layer1" transform="translate(-56 -908.36)"><g id="layer2" fill="#859f46" display="none" opacity=".5" transform="translate(229.28 556.07)"><rect id="48x48" width="48" height="48" x="-2.25" y="4.25" color="#000" display="inline"/><rect id="32x32" width="32" height="32" x="53.75" y="20.25" color="#000" display="inline"/><rect id="24x24" width="24" height="24" x="93.75" y="28.25" color="#000" display="inline"/><rect id="22x22" width="22" height="22" x="125.75" y="30.25" color="#000" display="inline"/></g><path style="block-progression:tb;text-indent:0;text-transform:none" id="path29073" fill="#bebebe" d="m56.812 908.36c-0.4584 0.0875-0.82072 0.53338-0.8125 0.99996v0.99996 11 0.99996c0.000052 0.52356 0.47642 0.99991 1 0.99996h10c0.52358-0.00005 0.99995-0.4764 1-0.99996v-2.9999h-2v1.9999h-8v-11h5v2.9999h3v1.9999h2v-2.4374c0.0061-0.26405-0.09754-0.52895-0.28125-0.71873l-3.5625-3.5624c-0.18978-0.18369-0.45469-0.28736-0.71875-0.28124h-6.4375c-0.03123-0.001-0.06252-0.001-0.09375 0-0.03123-0.001-0.06252-0.001-0.09375 0z" color="#000" font-family="Sans" line-height="normal"/><path id="path29075" fill="#bebebe" fill-rule="evenodd" d="m63 916.36h6v-1.9999l3 2.9999-3 2.9999v-1.9999h-6z"/></g></svg>