<svg xmlns="http://www.w3.org/2000/svg" id="svg1" width="16" height="16" version="1.1"><defs id="defs3"><clipPath id="clipPath5634" clipPathUnits="userSpaceOnUse"><rect id="use5636" width="16" height="16" x="176" y="548.36" fill="#606060" fill-opacity=".313" color="#000"/></clipPath><clipPath id="clipPath5638" clipPathUnits="userSpaceOnUse"><rect id="use5640" width="16" height="16" x="176" y="548.36" fill="#606060" fill-opacity=".313" color="#000"/></clipPath><clipPath id="clipPath5642" clipPathUnits="userSpaceOnUse"><rect id="use5644" width="16" height="16" x="176" y="548.36" fill="#606060" fill-opacity=".313" color="#000"/></clipPath></defs><metadata id="metadata7"/><g id="layer1" transform="translate(-176 -548.36)"><g id="layer2" fill="#859f46" display="none" opacity=".5" transform="translate(229.28 556.07)"><rect id="48x48" width="48" height="48" x="-2.25" y="4.25" color="#000" display="inline"/><rect id="32x32" width="32" height="32" x="53.75" y="20.25" color="#000" display="inline"/><rect id="24x24" width="24" height="24" x="93.75" y="28.25" color="#000" display="inline"/><rect id="22x22" width="22" height="22" x="125.75" y="30.25" color="#000" display="inline"/></g><path id="path9274-0" fill="#bebebe" fill-rule="evenodd" d="m179.6 548.71c-1.3614 2.356 1.345 3.5979 1.3992 5.1548 0.0629 1.8042-1.6344 2.3735-2.6131 2.1177-1.2349-0.3227-1.7897-1.3745-1.8401-2.3756-0.0967-1.9205 2.061-5.1727 3.054-4.8968z" color="#000"/><path id="path9264-6" fill="#bebebe" fill-rule="evenodd" d="m182.17 568.74c0.32722 0.65675 0.82152 0.44765 0.73608-0.34905-0.60074-5.6018-0.19702-6.1563-1.8815-12.294-0.6564 0.76004-1.7012 1.0274-2.7118 0.79181 0.96041 6.4386 2.6483 8.4282 3.8572 11.851z" clip-path="url(#clipPath5642)" color="#000"/><path id="path9274-0-8" fill="#bebebe" fill-rule="evenodd" d="m188.63 549.97c1.3614 2.356-1.345 3.5979-1.3992 5.1548-0.0629 1.8042 1.6344 2.3735 2.6131 2.1177 1.2349-0.3227 1.7897-1.3745 1.8401-2.3756 0.0967-1.9205-2.061-5.1727-3.054-4.8968z" color="#000"/><path id="path9264-6-8" fill="#bebebe" fill-rule="evenodd" d="m186.88 570.13c0.0607 0.73123 0.59732 0.72007 0.81302-0.0516 1.5167-5.426 2.097-5.7915 2.8054-12.116-0.89122 0.46289-1.9607 0.32432-2.8123-0.26885-1.4925 6.3365-0.66153 8.8097-0.80619 12.437z" clip-path="url(#clipPath5638)" color="#000"/><path id="path9274-0-4" fill="#bebebe" fill-rule="evenodd" d="m184.07 548.39c0.19134 1.1305-1.134 2.623-1.6009 3.5455-0.28391 0.56103-0.4301 1.0747-0.23235 1.6297 0.30011 0.84221 0.89009 1.2438 1.5083 1.362 0.63002 0.12043 1.2894-0.0535 1.7011-0.35544 0.52489-0.38493 0.79699-0.86647 0.86757-1.3852 0.26355-1.937-0.94767-4.3467-2.2437-4.7965z" color="#000"/><path id="path9264-6-0" fill="#bebebe" fill-rule="evenodd" d="m184.5 568.02c0.18987 0.70876 0.71591 0.60229 0.79086-0.19546 0.52689-5.6093 1.033-6.0722 0.60458-12.422-0.79462 0.61409-1.8717 0.66806-2.8152 0.23589-0.34112 6.5009 0.91668 8.7868 1.4198 12.382z" clip-path="url(#clipPath5634)" color="#000"/></g></svg>