<svg xmlns="http://www.w3.org/2000/svg" xmlns:xlink="http://www.w3.org/1999/xlink" width="51.2" height="51.2" version="1.1" viewBox="0 0 38.4 38.4"><defs><linearGradient id="linear0" x1="3" x2="45" y1="0" y2="0" gradientTransform="matrix(0.8,0,0,0.8,0,0)" gradientUnits="userSpaceOnUse"><stop offset="0" stop-color="#004D66" stop-opacity="1"/><stop offset=".5" stop-color="#7F4D66" stop-opacity="1"/><stop offset="1" stop-color="#FF4D66" stop-opacity="1"/></linearGradient><linearGradient id="linear1" x1="3" x2="45" y1="0" y2="0" gradientTransform="matrix(0.8,0,0,0.8,0,12.8)" gradientUnits="userSpaceOnUse"><stop offset="0" stop-color="#4D0066" stop-opacity="1"/><stop offset=".5" stop-color="#4D7F66" stop-opacity="1"/><stop offset="1" stop-color="#4DFF66" stop-opacity="1"/></linearGradient><linearGradient id="linear2" x1="3" x2="45" y1="0" y2="0" gradientTransform="matrix(0.8,0,0,0.8,0,25.6)" gradientUnits="userSpaceOnUse"><stop offset="0" stop-color="#4D4D00" stop-opacity="1"/><stop offset=".5" stop-color="#4D4D7F" stop-opacity="1"/><stop offset="1" stop-color="#4D4DFF" stop-opacity="1"/></linearGradient></defs><g id="surface6"><path fill="none" stroke="#000" stroke-linecap="butt" stroke-linejoin="round" stroke-miterlimit="10" stroke-opacity=".4" stroke-width="3" d="M 3.500977 3.500977 L 44.501953 3.500977 L 44.501953 12.5 L 3.500977 12.5 Z M 3.500977 3.500977" transform="matrix(0.8,0,0,0.8,0,0)"/><path fill="url(#linear0)" fill-rule="nonzero" stroke="none" d="M 2.398438 2.398438 L 36 2.398438 L 36 10.398438 L 2.398438 10.398438 Z M 2.398438 2.398438"/><path fill="none" stroke="#FFF" stroke-linecap="butt" stroke-linejoin="round" stroke-miterlimit="10" stroke-opacity=".25" stroke-width="1" d="M 3.500977 3.500977 L 44.501953 3.500977 L 44.501953 12.5 L 3.500977 12.5 Z M 3.500977 3.500977" transform="matrix(0.8,0,0,0.8,0,0)"/><path fill="none" stroke="#000" stroke-linecap="butt" stroke-linejoin="round" stroke-miterlimit="10" stroke-opacity=".4" stroke-width="3" d="M 3.500977 3.501953 L 44.501953 3.501953 L 44.501953 12.500977 L 3.500977 12.500977 Z M 3.500977 3.501953" transform="matrix(0.8,0,0,0.8,0,12.8)"/><path fill="url(#linear1)" fill-rule="nonzero" stroke="none" d="M 2.398438 15.199219 L 36 15.199219 L 36 23.199219 L 2.398438 23.199219 Z M 2.398438 15.199219"/><path fill="none" stroke="#FFF" stroke-linecap="butt" stroke-linejoin="round" stroke-miterlimit="10" stroke-opacity=".25" stroke-width="1" d="M 3.500977 3.501953 L 44.501953 3.501953 L 44.501953 12.500977 L 3.500977 12.500977 Z M 3.500977 3.501953" transform="matrix(0.8,0,0,0.8,0,12.8)"/><path fill="none" stroke="#000" stroke-linecap="butt" stroke-linejoin="round" stroke-miterlimit="10" stroke-opacity=".4" stroke-width="3" d="M 3.500977 3.498047 L 44.501953 3.498047 L 44.501953 12.49707 L 3.500977 12.49707 Z M 3.500977 3.498047" transform="matrix(0.8,0,0,0.8,0,25.6)"/><path fill="url(#linear2)" fill-rule="nonzero" stroke="none" d="M 2.398438 28 L 36 28 L 36 36 L 2.398438 36 Z M 2.398438 28"/><path fill="none" stroke="#FFF" stroke-linecap="butt" stroke-linejoin="round" stroke-miterlimit="10" stroke-opacity=".25" stroke-width="1" d="M 3.500977 3.498047 L 44.501953 3.498047 L 44.501953 12.49707 L 3.500977 12.49707 Z M 3.500977 3.498047" transform="matrix(0.8,0,0,0.8,0,25.6)"/></g></svg>