<svg xmlns="http://www.w3.org/2000/svg" id="svg7384" width="16" height="16.003" version="1.1"><metadata id="metadata90"/><title id="title9167">Gnome Symbolic Icon Theme</title><g id="layer12" fill="#bebebe" transform="translate(-60,-668)"><path id="rect4897" d="m64.031 673.03v6.9687h5l1.9908-1.987-0.0221-4.9817h-6.9688l0.000003-0.00001z"/><rect id="rect4899" width="5.063" height="4" x="65" y="668" rx=".53" ry=".53"/><path style="block-progression:tb;text-indent:0;text-transform:none" id="path41043" d="m62.5 669c-0.29309 0-0.64673 0.036-1 0.3125-0.35327 0.27647-0.53125 0.76875-0.53125 1.125v12.031c0 0.384 0.12769 0.81517 0.4375 1.125 0.28542 0.28544 0.70914 0.38602 1.0938 0.375v0.0313h0.09375 9.875c0.36285 0 0.75992-0.12788 1.0625-0.40625 0.302-0.27 0.468-0.71 0.468-1.12v-12.09c0-0.33333-0.11893-0.72959-0.40625-1-0.288-0.28-0.669-0.38-0.969-0.38h-1.6562v2h1.0312v11h-9.0312v-11h0.96875v-2h-1.4375z" color="#000"/></g></svg>