<svg xmlns="http://www.w3.org/2000/svg" id="svg1" width="16.085" height="16.024" version="1.1"><metadata id="metadata7"/><g id="layer1" fill="#bebebe" transform="translate(-87.952 -884.34)"><path style="block-progression:tb;text-indent:0;text-transform:none" id="path12113-8" d="m98.781 884.36a1.0001 1.0001 0 0 0 -0.78125 1v4a1.0001 1.0001 0 0 0 1 1h4a1.0001 1.0001 0 1 0 0 -2h-3v-3a1.0001 1.0001 0 0 0 -1.2187 -1z" color="#000" enable-background="new" font-family="Sans" line-height="normal"/><path style="block-progression:tb;text-indent:0;text-transform:none" id="path12147-8" d="m102.87 884.36a1.0001 1.0001 0 0 0 -0.59375 0.28125l-4 4a1.0165 1.0165 0 1 0 1.4375 1.4375l4-4a1.0001 1.0001 0 0 0 -0.84375 -1.7188z" color="#000" enable-background="new" font-family="Sans" line-height="normal"/><rect id="rect12919-5" width="1" height="1" x="98" y="889.36" color="#000" enable-background="new"/><path style="block-progression:tb;text-indent:0;text-transform:none" id="rect13039" d="m88.906 890.36a1.0001 1.0001 0 0 0 -0.90625 1v8a1.0001 1.0001 0 0 0 1 1h8a1.0001 1.0001 0 0 0 1 -1v-8a1.0001 1.0001 0 0 0 -1 -1h-8a1.0001 1.0001 0 0 0 -0.09375 0zm1.0938 2h6v6h-6v-6z" color="#000" enable-background="new" font-family="Sans" line-height="normal"/><path style="block-progression:tb;text-indent:0;text-transform:none" id="path13041" fill-rule="evenodd" d="m88.906 892.36a1.0011 1.0011 0 0 0 0.09375 2h8a1.0001 1.0001 0 1 0 0 -2h-8a1.0001 1.0001 0 0 0 -0.09375 0z" color="#000" enable-background="new" font-family="Sans" line-height="normal"/><rect id="rect4479-2-9-9-0-8-6" width="1" height="1" x="103" y="889.36" color="#000"/><rect id="rect4479-2-9-9-0-8-6-6" width="1" height="1" x="98" y="884.36" color="#000"/><rect id="rect4479-2-9-9-0-8-6-9" width="1" height="1" x="97" y="899.36" color="#000"/><rect id="rect4479-2-9-9-0-8-6-4" width="1" height="1" x="88" y="899.36" color="#000"/></g></svg>