<svg xmlns="http://www.w3.org/2000/svg" xmlns:svg="http://www.w3.org/2000/svg" id="svg1" width="16" height="16" version="1.1"><title id="title13694">MyPaint symbolic icons</title><metadata id="metadata7"/><g id="layer2" fill="#859f46" display="none" opacity=".5" transform="translate(213.28,-456.33002)"><rect id="48x48" width="48" height="48" x="-2.25" y="4.25" color="#000" display="inline"/><rect id="32x32" width="32" height="32" x="53.75" y="20.25" color="#000" display="inline"/><rect id="24x24" width="24" height="24" x="93.75" y="28.25" color="#000" display="inline"/><rect id="22x22" width="22" height="22" x="125.75" y="30.25" color="#000" display="inline"/><rect id="16x16" width="16" height="16" x="155.75" y="36.25" color="#000" display="inline"/></g><path id="path5256-7-6" fill="#bebebe" d="m 0,15.999976 3,-3 13,0 -3,3 z"/><path id="path24341-7-7" fill="#bebebe" d="m 4.5,2.9999756 c -1.0987,0 -2,0.9014 -2,2 0,1.0987 0.90135,2 2,2 1.0987,0 2,-0.9013 2,-2 0,-1.0986 -0.90135,-2 -2,-2 z m 0,1 c 0.55821,0 1,0.4418 1,1 0,0.5582 -0.44179,1 -1,1 -0.55821,0 -1,-0.4418 -1,-1 0,-0.5582 0.44179,-1 1,-1 z" color="#000" color-rendering="auto" font-family="sans-serif" image-rendering="auto" line-height="normal" shape-rendering="auto" text-decoration="none" text-rendering="auto" style="line-height:normal;text-indent:0;text-decoration-line:none;text-decoration-style:solid;text-decoration-color:#000;text-transform:none;block-progression:tb;white-space:normal;isolation:auto;mix-blend-mode:normal;solid-color:#000"/><circle id="use24347-3-3-41-8" cx="2" cy="9" r="1.5" fill="#bebebe" opacity=".3"/><path id="path24341-7-7-7" fill="#bebebe" d="m 2,6.9999756 c -1.0987,0 -2,0.9014 -2,2 0,1.0987004 0.90135,2.0000004 2,2.0000004 1.0987,0 2,-0.9013 2,-2.0000004 0,-1.0986 -0.90135,-2 -2,-2 z m 0,1 c 0.55821,0 1,0.4418 1,1 0,0.5582 -0.44179,1 -1,1 -0.55821,0 -1,-0.4418 -1,-1 0,-0.5582 0.44179,-1 1,-1 z" color="#000" color-rendering="auto" font-family="sans-serif" image-rendering="auto" line-height="normal" shape-rendering="auto" text-decoration="none" text-rendering="auto" style="line-height:normal;text-indent:0;text-decoration-line:none;text-decoration-style:solid;text-decoration-color:#000;text-transform:none;block-progression:tb;white-space:normal;isolation:auto;mix-blend-mode:normal;solid-color:#000"/><circle id="use24347-3-3-41-7" cx="7" cy="9" r="1.5" fill="#bebebe"/><path id="path24341-7-7-4" fill="#bebebe" d="m 7,6.9999756 c -1.0987,0 -2,0.9014 -2,2 0,1.0987004 0.90135,2.0000004 2,2.0000004 1.0987,0 2,-0.9013 2,-2.0000004 0,-1.0986 -0.90135,-2 -2,-2 z m 0,1 c 0.55821,0 1,0.4418 1,1 0,0.5582 -0.44179,1 -1,1 -0.55821,0 -1,-0.4418 -1,-1 0,-0.5582 0.44179,-1 1,-1 z" color="#000" color-rendering="auto" font-family="sans-serif" image-rendering="auto" line-height="normal" shape-rendering="auto" text-decoration="none" text-rendering="auto" style="line-height:normal;text-indent:0;text-decoration-line:none;text-decoration-style:solid;text-decoration-color:#000;text-transform:none;block-progression:tb;white-space:normal;isolation:auto;mix-blend-mode:normal;solid-color:#000"/><path id="path4760-9-0-4" fill="#bebebe" d="m 16.118,1.9999756 -1.1176,2.5 -3,-0.5 0,-4.000000014063 c 3.2941,0 2.4706,2.000000014063 4.1176,2.000000014063 z" color="#000"/><path id="path5783-32-6-6" fill="#bebebe" d="m 12.5,4.9999756 c -0.79113,0.054 -1.5295,0.4826 -1.9559,1.2 -0.32646,0.5492 -0.4204,1.1525 -0.28309,1.725 0.142,0.592 0.7354,1.2834 -0.25735,3.1250004 -0.0088,0.01 -0.01756,0.017 -0.02574,0.025 -0.07451,0.072 -0.12868,0.1645 -0.12868,0.275 0,0.2209 0.18435,0.4 0.41176,0.4 1.1831,-0.5738 2.6123,-1.0552 3.5257,-1.9250004 0.45951,-0.449 0.83062,-0.8906 1.0294,-1.225 0.68224,-1.1479 0.28092,-2.6123 -0.90074,-3.275 -0.44312,-0.2486 -0.94076,-0.3576 -1.4154,-0.325 z" color="#000"/></svg>