<svg xmlns="http://www.w3.org/2000/svg" xmlns:ns3="http://www.openswatchbook.org/uri/2009/osb" id="svg1" width="16" height="16" version="1.1"><title id="title13694">MyPaint symbolic icons</title><metadata id="metadata7"/><g id="layer1" transform="translate(-208 -588.36)"><g id="layer2" fill="#859f46" display="none" opacity=".5" transform="translate(229.28 556.07)"><rect id="48x48" width="48" height="48" x="-2.25" y="4.25" color="#000" display="inline"/><rect id="32x32" width="32" height="32" x="53.75" y="20.25" color="#000" display="inline"/><rect id="24x24" width="24" height="24" x="93.75" y="28.25" color="#000" display="inline"/><rect id="22x22" width="22" height="22" x="125.75" y="30.25" color="#000" display="inline"/></g><rect id="rect4505" width="14" height="1" x="209" y="602.36" fill="#bebebe" color="#000" rx="0"/><path id="path5566" fill="#bebebe" d="m222 589.36c-6.6274 0-12 5.3726-12 12h1c0-6.0751 4.9249-11 11-11v-1z" color="#000"/><path id="path5572" fill="#bebebe" d="m222 591.36c-5.5228 0-10 4.4772-10 10h2c0-4.4183 3.5817-8 8-8v-2z" color="#000"/><path id="path5577" fill="#bebebe" d="m222 594.36c-3.866 0-7 3.134-7 7h1c0-3.3137 2.6863-6 6-6v-1z" color="#000"/></g></svg>