<svg xmlns="http://www.w3.org/2000/svg" id="svg7384" width="16" height="16" version="1.1"><metadata id="metadata90"/><title id="title9167">Gnome Symbolic Icon Theme</title><path style="isolation:auto;mix-blend-mode:normal;solid-color:#000" id="path3388" fill="#bebebe" d="m8 0l-3 2.5 0.0059 0.5h1.9941v3h-3v-2h-0.5l-2.5 3 2.5 3 0.5-0.0059v-1.9941h3v3h-2v0.5l3 2.5 3-2.5-0.008-0.5h-1.992v-3h3v1.9941h0.5l2.5-3.0019-2.5-3-0.5 0.0078v2h-3v-3h2v-0.5l-3-2.5zm-5 13l-3 3h12l3-3h-4.092l-2.2342 1.861a1.0523 1.0523 0 0 1 -1.3476 0l-2.2344-1.861h-2.0918z" color="#000" color-rendering="auto" image-rendering="auto" shape-rendering="auto"/></svg>