<svg xmlns="http://www.w3.org/2000/svg" xmlns:ns3="http://www.openswatchbook.org/uri/2009/osb" id="svg1" width="16" height="16" version="1.1"><title id="title13694">MyPaint symbolic icons</title><metadata id="metadata7"/><g id="layer1" transform="translate(-336 -492.36)"><g id="layer2" fill="#859f46" display="none" opacity=".5" transform="translate(229.28 556.07)"><rect id="48x48" width="48" height="48" x="-2.25" y="4.25" color="#000" display="inline"/><rect id="32x32" width="32" height="32" x="53.75" y="20.25" color="#000" display="inline"/><rect id="24x24" width="24" height="24" x="93.75" y="28.25" color="#000" display="inline"/><rect id="22x22" width="22" height="22" x="125.75" y="30.25" color="#000" display="inline"/></g><path id="rect3861" fill="#bebebe" d="m339 504.86h10c1 0 2-1 2-2v3c0 1-1 2-2 2h-10c-1 0-1.5-0.5-1.5-1.5s0.5-1.5 1.5-1.5z" color="#000" opacity=".3"/><path id="rect24024-5-7-1-7-8-2-5-87" fill="#bebebe" d="m338.5 492.36c-0.5 0-1.5 0.5-1.5 1.5v13c0 1 1 1.5 1.5 1.5h10.5c1 0 2-1 2-2v-1c0 1-1 2-2 2h-10c-0.5 0-1-0.5-1-1s0.49998-1 1-1h10c1 0 2-1 2-2v-9c0-1-1-2-2-2h-3v6.5625l1.2812-1.2812c0.18816-0.1882 0.45345-0.28129 0.71875-0.2813h1v1c-0.00001 0.2653-0.0931 0.53058-0.28125 0.71875l-4.2188 4.2812-4.2188-4.2812c-0.19-0.19-0.28-0.45-0.28-0.72v-1h1c0.2653 0.00003 0.53059 0.0931 0.71875 0.28125l1.2812 1.2812v-6.5625z" color="#000"/></g></svg>