<svg xmlns="http://www.w3.org/2000/svg" xmlns:ns3="http://www.openswatchbook.org/uri/2009/osb" id="svg1" width="16" height="16.044" version="1.1"><metadata id="metadata7"/><g id="layer1" transform="translate(-112 -596.36)"><path id="path3620" fill="#bebebe" fill-rule="evenodd" d="m122.61 601.77-4.2202 5.6634-1.694 1.4926-0.69772-0.56071 0.99632-2.0533 4.2202-5.6634 1.3954 1.1214z"/><path id="path4352" fill="#bebebe" fill-rule="evenodd" d="m116 608.94s-1.4772 0.66848-1.4654 2.0797c0.0147 1.758 2.6601 1.8434 2.7433 0.28446 0.05-0.89-1.28-2.36-1.28-2.36z"/><path id="path3583" fill="#bebebe" fill-rule="evenodd" d="m118.65 600.79 4.6492 3.5274 0.70445-0.92575-1.3947-1.0582c2.8037-0.79322 4.7199-4.1748 2.8603-5.5858-1.8597-1.4109-4.7057 1.2652-4.7199 4.1749l-1.3948-1.0582-0.70448 0.92571z"/><g id="layer2" fill="#859f46" display="none" opacity=".5" transform="translate(229.28 556.07)"><rect id="48x48" width="48" height="48" x="-2.25" y="4.25" color="#000" display="inline"/><rect id="32x32" width="32" height="32" x="53.75" y="20.25" color="#000" display="inline"/><rect id="24x24" width="24" height="24" x="93.75" y="28.25" color="#000" display="inline"/><rect id="22x22" width="22" height="22" x="125.75" y="30.25" color="#000" display="inline"/></g></g></svg>