<svg xmlns="http://www.w3.org/2000/svg" xmlns:ns3="http://www.openswatchbook.org/uri/2009/osb" id="svg1" width="16" height="16" version="1.1"><metadata id="metadata7"/><g id="layer1" transform="translate(-80 -908.36)"><path id="path4934" fill="#bebebe" d="m92 912.36h-1.3333l-6.667 6.67v1.3333h1.3333l6.667-6.66z"/><path id="path4936" fill="#bebebe" d="m84 912.36h1.3333l6.6667 6.6667v1.3333h-1.3333l-6.667-6.66z"/><path id="rect4961" fill="#bebebe" d="m82 909.36c-0.55349 0-1 0.44651-1 1v12c0 0.55349 0.44651 1 1 1h12c0.55349 0 1-0.44651 1-1v-12c0-0.55349-0.44651-1-1-1h-12zm1 1h10c0.55349 0 1 0.44651 1 1v10c0 0.55349-0.44651 1-1 1h-10c-0.55349 0-1-0.44651-1-1v-10c0-0.55349 0.44651-1 1-1z"/><g id="layer2" fill="#859f46" display="none" opacity=".5" transform="translate(229.28 556.07)"><rect id="48x48" width="48" height="48" x="-2.25" y="4.25" color="#000" display="inline"/><rect id="32x32" width="32" height="32" x="53.75" y="20.25" color="#000" display="inline"/><rect id="24x24" width="24" height="24" x="93.75" y="28.25" color="#000" display="inline"/><rect id="22x22" width="22" height="22" x="125.75" y="30.25" color="#000" display="inline"/></g></g></svg>