<svg xmlns="http://www.w3.org/2000/svg" xmlns:svg="http://www.w3.org/2000/svg" id="svg1" width="16" height="16" version="1.1"><g id="layer2" fill="#859f46" display="none" opacity=".5" transform="translate(133.28,-384.29)"><rect id="48x48" width="48" height="48" x="-2.25" y="4.25" color="#000" display="inline"/><rect id="32x32" width="32" height="32" x="53.75" y="20.25" color="#000" display="inline"/><rect id="24x24" width="24" height="24" x="93.75" y="28.25" color="#000" display="inline"/><rect id="22x22" width="22" height="22" x="125.75" y="30.25" color="#000" display="inline"/><rect id="16x16" width="16" height="16" x="155.75" y="36.25" color="#000" display="inline"/></g><path id="path3955-75-5" fill="#bebebe" fill-rule="evenodd" d="m 6.01,11.58 3.4855,-3.5755 1.5,0 0,1.5 -2,2 2,2 0,1.5 -1.5,0 z" color="#000"/><path id="path3955-75-5-3" fill="#bebebe" fill-rule="evenodd" d="m 9.99,4.58 -3.4855,-3.5755 -1.5,0 0,1.5 2,2 -2,2 0,1.5 1.5,0 z" color="#000"/><rect id="rect5174" width="3" height="7" x="1" y="1" fill="#bebebe" fill-rule="evenodd" color="#000" color-rendering="auto" image-rendering="auto" opacity=".333" shape-rendering="auto" text-rendering="auto" style="isolation:auto;mix-blend-mode:normal;solid-color:#000"/><rect id="rect5176" width="3" height="7" x="12" y="8" fill="#bebebe" fill-rule="evenodd" color="#000" color-rendering="auto" image-rendering="auto" opacity=".333" shape-rendering="auto" text-rendering="auto" style="isolation:auto;mix-blend-mode:normal;solid-color:#000"/></svg>