<svg xmlns="http://www.w3.org/2000/svg" xmlns:ns3="http://www.openswatchbook.org/uri/2009/osb" id="svg1" width="16" height="16.023" version="1.1"><metadata id="metadata7"/><g id="layer1" transform="translate(-144 -524.34)"><g id="layer2" fill="#859f46" display="none" opacity=".5" transform="translate(229.28 556.07)"><rect id="48x48" width="48" height="48" x="-2.25" y="4.25" color="#000" display="inline"/><rect id="32x32" width="32" height="32" x="53.75" y="20.25" color="#000" display="inline"/><rect id="24x24" width="24" height="24" x="93.75" y="28.25" color="#000" display="inline"/><rect id="22x22" width="22" height="22" x="125.75" y="30.25" color="#000" display="inline"/></g><path style="block-progression:tb;text-indent:0;text-transform:none" id="rect10788-0" fill="#bebebe" d="m148 525.36c-1.0907 0-2 0.9093-2 2v11c0 1.0907 0.9093 2 2 2h9c1.0907 0 2-0.9093 2-2v-11c0-1.0907-0.9093-2-2-2v1.5c0.005 1.1525-1.6408 1.8931-2.5 1.125-0.54394 0.48643-1.4561 0.48643-2 0-0.54394 0.48643-1.4561 0.48643-2 0-0.85917 0.76814-2.5051 0.0275-2.5-1.125z" color="#000" enable-background="new" font-family="Sans" line-height="normal"/><path style="block-progression:tb;text-indent:0;text-transform:none" id="path3601-2-3-3-9-3-3-7-1" fill="#bebebe" d="m149.44 524.34a0.50005 0.50005 0 0 0 -0.44 0.54v2a0.50005 0.50005 0 1 0 1 0v-2a0.50005 0.50005 0 0 0 -0.5625 -0.53125zm2 0a0.50005 0.50005 0 0 0 -0.44 0.54v2a0.50005 0.50005 0 1 0 1 0v-2a0.50005 0.50005 0 0 0 -0.5625 -0.53125zm2 0a0.50005 0.50005 0 0 0 -0.44 0.54v2a0.50005 0.50005 0 1 0 1 0v-2a0.50005 0.50005 0 0 0 -0.5625 -0.53125zm2 0a0.50005 0.50005 0 0 0 -0.44 0.54v2a0.50005 0.50005 0 1 0 1 0v-2a0.50005 0.50005 0 0 0 -0.5625 -0.53125z" color="#000" font-family="Sans" line-height="normal"/></g></svg>