<svg xmlns="http://www.w3.org/2000/svg" id="svg1" width="16" height="16" version="1.1"><metadata id="metadata7"/><g id="layer1" transform="translate(-56 -740.36)"><g id="layer2" fill="#859f46" display="none" opacity=".5" transform="translate(229.28 556.07)"><rect id="48x48" width="48" height="48" x="-2.25" y="4.25" color="#000" display="inline"/><rect id="32x32" width="32" height="32" x="53.75" y="20.25" color="#000" display="inline"/><rect id="24x24" width="24" height="24" x="93.75" y="28.25" color="#000" display="inline"/><rect id="22x22" width="22" height="22" x="125.75" y="30.25" color="#000" display="inline"/></g><path id="path19708-8-0-0" fill="#bebebe" d="m71 740.36-3 3h-2.0312-0.59375-3.375-5l3-3z"/><path id="path19708-8-2-1-3-1" fill="#bebebe" d="m63.5 749.36-1 1h2.5v-1h-1.5zm-1 1-1.5 1.5-1.75-1.75-2.25 2.25h6.5l-1-1v-1zm6.5-1v1h1l1-1h-2zm-9 4-3 3h11l3-3h-1.5l-2.5 2.5-2.5-2.5h-4.5z" opacity=".3"/><path id="path19710-2-5" fill="#bebebe" d="m62 744.36h2v2h-2v0.98833h2l-3 2.9883-3-2.9883h2v-0.98833c0-1 1-2 2-2z"/><path id="path19710-2-5-4" fill="#bebebe" d="m63 744.36h3c1 0 2 1 2 2v5h2l-3 2.9883-3-2.9883h2v-5h-3z"/></g></svg>