<svg xmlns="http://www.w3.org/2000/svg" xmlns:xlink="http://www.w3.org/1999/xlink" width="51.2" height="51.2" version="1.1" viewBox="0 0 38.4 38.4"><defs><linearGradient id="linear0" x1="3" x2="3" y1="3" y2="45" gradientTransform="matrix(0.8,0,0,0.8,0,0)" gradientUnits="userSpaceOnUse"><stop offset="0" stop-color="#00BFFF" stop-opacity="1"/><stop offset="1" stop-color="#000" stop-opacity="1"/></linearGradient><linearGradient id="linear1" x1="4" x2="4" y1="3" y2="45" gradientTransform="matrix(0.8,0,0,0.8,0,0)" gradientUnits="userSpaceOnUse"><stop offset="0" stop-color="#06C1FF" stop-opacity="1"/><stop offset="1" stop-color="#000" stop-opacity="1"/></linearGradient><linearGradient id="linear2" x1="5" x2="5" y1="3" y2="45" gradientTransform="matrix(0.8,0,0,0.8,0,0)" gradientUnits="userSpaceOnUse"><stop offset="0" stop-color="#0CC2FF" stop-opacity="1"/><stop offset="1" stop-color="#000" stop-opacity="1"/></linearGradient><linearGradient id="linear3" x1="6" x2="6" y1="3" y2="45" gradientTransform="matrix(0.8,0,0,0.8,0,0)" gradientUnits="userSpaceOnUse"><stop offset="0" stop-color="#12C4FF" stop-opacity="1"/><stop offset="1" stop-color="#000" stop-opacity="1"/></linearGradient><linearGradient id="linear4" x1="7" x2="7" y1="3" y2="45" gradientTransform="matrix(0.8,0,0,0.8,0,0)" gradientUnits="userSpaceOnUse"><stop offset="0" stop-color="#18C5FF" stop-opacity="1"/><stop offset="1" stop-color="#000" stop-opacity="1"/></linearGradient><linearGradient id="linear5" x1="8" x2="8" y1="3" y2="45" gradientTransform="matrix(0.8,0,0,0.8,0,0)" gradientUnits="userSpaceOnUse"><stop offset="0" stop-color="#1EC7FF" stop-opacity="1"/><stop offset="1" stop-color="#000" stop-opacity="1"/></linearGradient><linearGradient id="linear6" x1="9" x2="9" y1="3" y2="45" gradientTransform="matrix(0.8,0,0,0.8,0,0)" gradientUnits="userSpaceOnUse"><stop offset="0" stop-color="#24C8FF" stop-opacity="1"/><stop offset="1" stop-color="#000" stop-opacity="1"/></linearGradient><linearGradient id="linear7" x1="10" x2="10" y1="3" y2="45" gradientTransform="matrix(0.8,0,0,0.8,0,0)" gradientUnits="userSpaceOnUse"><stop offset="0" stop-color="#2BCAFF" stop-opacity="1"/><stop offset="1" stop-color="#000" stop-opacity="1"/></linearGradient><linearGradient id="linear8" x1="11" x2="11" y1="3" y2="45" gradientTransform="matrix(0.8,0,0,0.8,0,0)" gradientUnits="userSpaceOnUse"><stop offset="0" stop-color="#31CBFF" stop-opacity="1"/><stop offset="1" stop-color="#000" stop-opacity="1"/></linearGradient><linearGradient id="linear9" x1="12" x2="12" y1="3" y2="45" gradientTransform="matrix(0.8,0,0,0.8,0,0)" gradientUnits="userSpaceOnUse"><stop offset="0" stop-color="#37CDFF" stop-opacity="1"/><stop offset="1" stop-color="#000" stop-opacity="1"/></linearGradient><linearGradient id="linear10" x1="13" x2="13" y1="3" y2="45" gradientTransform="matrix(0.8,0,0,0.8,0,0)" gradientUnits="userSpaceOnUse"><stop offset="0" stop-color="#3DCEFF" stop-opacity="1"/><stop offset="1" stop-color="#000" stop-opacity="1"/></linearGradient><linearGradient id="linear11" x1="14" x2="14" y1="3" y2="45" gradientTransform="matrix(0.8,0,0,0.8,0,0)" gradientUnits="userSpaceOnUse"><stop offset="0" stop-color="#43D0FF" stop-opacity="1"/><stop offset="1" stop-color="#000" stop-opacity="1"/></linearGradient><linearGradient id="linear12" x1="15" x2="15" y1="3" y2="45" gradientTransform="matrix(0.8,0,0,0.8,0,0)" gradientUnits="userSpaceOnUse"><stop offset="0" stop-color="#49D1FF" stop-opacity="1"/><stop offset="1" stop-color="#000" stop-opacity="1"/></linearGradient><linearGradient id="linear13" x1="16" x2="16" y1="3" y2="45" gradientTransform="matrix(0.8,0,0,0.8,0,0)" gradientUnits="userSpaceOnUse"><stop offset="0" stop-color="#4FD3FF" stop-opacity="1"/><stop offset="1" stop-color="#000" stop-opacity="1"/></linearGradient><linearGradient id="linear14" x1="17" x2="17" y1="3" y2="45" gradientTransform="matrix(0.8,0,0,0.8,0,0)" gradientUnits="userSpaceOnUse"><stop offset="0" stop-color="#55D4FF" stop-opacity="1"/><stop offset="1" stop-color="#000" stop-opacity="1"/></linearGradient><linearGradient id="linear15" x1="18" x2="18" y1="3" y2="45" gradientTransform="matrix(0.8,0,0,0.8,0,0)" gradientUnits="userSpaceOnUse"><stop offset="0" stop-color="#5BD6FF" stop-opacity="1"/><stop offset="1" stop-color="#000" stop-opacity="1"/></linearGradient><linearGradient id="linear16" x1="19" x2="19" y1="3" y2="45" gradientTransform="matrix(0.8,0,0,0.8,0,0)" gradientUnits="userSpaceOnUse"><stop offset="0" stop-color="#61D8FF" stop-opacity="1"/><stop offset="1" stop-color="#000" stop-opacity="1"/></linearGradient><linearGradient id="linear17" x1="20" x2="20" y1="3" y2="45" gradientTransform="matrix(0.8,0,0,0.8,0,0)" gradientUnits="userSpaceOnUse"><stop offset="0" stop-color="#67D9FF" stop-opacity="1"/><stop offset="1" stop-color="#000" stop-opacity="1"/></linearGradient><linearGradient id="linear18" x1="21" x2="21" y1="3" y2="45" gradientTransform="matrix(0.8,0,0,0.8,0,0)" gradientUnits="userSpaceOnUse"><stop offset="0" stop-color="#6DDBFF" stop-opacity="1"/><stop offset="1" stop-color="#000" stop-opacity="1"/></linearGradient><linearGradient id="linear19" x1="22" x2="22" y1="3" y2="45" gradientTransform="matrix(0.8,0,0,0.8,0,0)" gradientUnits="userSpaceOnUse"><stop offset="0" stop-color="#73DCFF" stop-opacity="1"/><stop offset="1" stop-color="#000" stop-opacity="1"/></linearGradient><linearGradient id="linear20" x1="23" x2="23" y1="3" y2="45" gradientTransform="matrix(0.8,0,0,0.8,0,0)" gradientUnits="userSpaceOnUse"><stop offset="0" stop-color="#79DEFF" stop-opacity="1"/><stop offset="1" stop-color="#000" stop-opacity="1"/></linearGradient><linearGradient id="linear21" x1="24" x2="24" y1="3" y2="45" gradientTransform="matrix(0.8,0,0,0.8,0,0)" gradientUnits="userSpaceOnUse"><stop offset="0" stop-color="#7FDFFF" stop-opacity="1"/><stop offset="1" stop-color="#000" stop-opacity="1"/></linearGradient><linearGradient id="linear22" x1="25" x2="25" y1="3" y2="45" gradientTransform="matrix(0.8,0,0,0.8,0,0)" gradientUnits="userSpaceOnUse"><stop offset="0" stop-color="#86E1FF" stop-opacity="1"/><stop offset="1" stop-color="#000" stop-opacity="1"/></linearGradient><linearGradient id="linear23" x1="26" x2="26" y1="3" y2="45" gradientTransform="matrix(0.8,0,0,0.8,0,0)" gradientUnits="userSpaceOnUse"><stop offset="0" stop-color="#8CE2FF" stop-opacity="1"/><stop offset="1" stop-color="#000" stop-opacity="1"/></linearGradient><linearGradient id="linear24" x1="27" x2="27" y1="3" y2="45" gradientTransform="matrix(0.8,0,0,0.8,0,0)" gradientUnits="userSpaceOnUse"><stop offset="0" stop-color="#92E4FF" stop-opacity="1"/><stop offset="1" stop-color="#000" stop-opacity="1"/></linearGradient><linearGradient id="linear25" x1="28" x2="28" y1="3" y2="45" gradientTransform="matrix(0.8,0,0,0.8,0,0)" gradientUnits="userSpaceOnUse"><stop offset="0" stop-color="#98E5FF" stop-opacity="1"/><stop offset="1" stop-color="#000" stop-opacity="1"/></linearGradient><linearGradient id="linear26" x1="29" x2="29" y1="3" y2="45" gradientTransform="matrix(0.8,0,0,0.8,0,0)" gradientUnits="userSpaceOnUse"><stop offset="0" stop-color="#9EE7FF" stop-opacity="1"/><stop offset="1" stop-color="#000" stop-opacity="1"/></linearGradient><linearGradient id="linear27" x1="30" x2="30" y1="3" y2="45" gradientTransform="matrix(0.8,0,0,0.8,0,0)" gradientUnits="userSpaceOnUse"><stop offset="0" stop-color="#A4E8FF" stop-opacity="1"/><stop offset="1" stop-color="#000" stop-opacity="1"/></linearGradient><linearGradient id="linear28" x1="31" x2="31" y1="3" y2="45" gradientTransform="matrix(0.8,0,0,0.8,0,0)" gradientUnits="userSpaceOnUse"><stop offset="0" stop-color="#AAEAFF" stop-opacity="1"/><stop offset="1" stop-color="#000" stop-opacity="1"/></linearGradient><linearGradient id="linear29" x1="32" x2="32" y1="3" y2="45" gradientTransform="matrix(0.8,0,0,0.8,0,0)" gradientUnits="userSpaceOnUse"><stop offset="0" stop-color="#B0EBFF" stop-opacity="1"/><stop offset="1" stop-color="#000" stop-opacity="1"/></linearGradient><linearGradient id="linear30" x1="33" x2="33" y1="3" y2="45" gradientTransform="matrix(0.8,0,0,0.8,0,0)" gradientUnits="userSpaceOnUse"><stop offset="0" stop-color="#B6EDFF" stop-opacity="1"/><stop offset="1" stop-color="#000" stop-opacity="1"/></linearGradient><linearGradient id="linear31" x1="34" x2="34" y1="3" y2="45" gradientTransform="matrix(0.8,0,0,0.8,0,0)" gradientUnits="userSpaceOnUse"><stop offset="0" stop-color="#BCEEFF" stop-opacity="1"/><stop offset="1" stop-color="#000" stop-opacity="1"/></linearGradient><linearGradient id="linear32" x1="35" x2="35" y1="3" y2="45" gradientTransform="matrix(0.8,0,0,0.8,0,0)" gradientUnits="userSpaceOnUse"><stop offset="0" stop-color="#C2F0FF" stop-opacity="1"/><stop offset="1" stop-color="#000" stop-opacity="1"/></linearGradient><linearGradient id="linear33" x1="36" x2="36" y1="3" y2="45" gradientTransform="matrix(0.8,0,0,0.8,0,0)" gradientUnits="userSpaceOnUse"><stop offset="0" stop-color="#C8F1FF" stop-opacity="1"/><stop offset="1" stop-color="#000" stop-opacity="1"/></linearGradient><linearGradient id="linear34" x1="37" x2="37" y1="3" y2="45" gradientTransform="matrix(0.8,0,0,0.8,0,0)" gradientUnits="userSpaceOnUse"><stop offset="0" stop-color="#CEF3FF" stop-opacity="1"/><stop offset="1" stop-color="#000" stop-opacity="1"/></linearGradient><linearGradient id="linear35" x1="38" x2="38" y1="3" y2="45" gradientTransform="matrix(0.8,0,0,0.8,0,0)" gradientUnits="userSpaceOnUse"><stop offset="0" stop-color="#D4F4FF" stop-opacity="1"/><stop offset="1" stop-color="#000" stop-opacity="1"/></linearGradient><linearGradient id="linear36" x1="39" x2="39" y1="3" y2="45" gradientTransform="matrix(0.8,0,0,0.8,0,0)" gradientUnits="userSpaceOnUse"><stop offset="0" stop-color="#DBF6FF" stop-opacity="1"/><stop offset="1" stop-color="#000" stop-opacity="1"/></linearGradient><linearGradient id="linear37" x1="40" x2="40" y1="3" y2="45" gradientTransform="matrix(0.8,0,0,0.8,0,0)" gradientUnits="userSpaceOnUse"><stop offset="0" stop-color="#E1F7FF" stop-opacity="1"/><stop offset="1" stop-color="#000" stop-opacity="1"/></linearGradient><linearGradient id="linear38" x1="41" x2="41" y1="3" y2="45" gradientTransform="matrix(0.8,0,0,0.8,0,0)" gradientUnits="userSpaceOnUse"><stop offset="0" stop-color="#E7F9FF" stop-opacity="1"/><stop offset="1" stop-color="#000" stop-opacity="1"/></linearGradient><linearGradient id="linear39" x1="42" x2="42" y1="3" y2="45" gradientTransform="matrix(0.8,0,0,0.8,0,0)" gradientUnits="userSpaceOnUse"><stop offset="0" stop-color="#EDFAFF" stop-opacity="1"/><stop offset="1" stop-color="#000" stop-opacity="1"/></linearGradient><linearGradient id="linear40" x1="43" x2="43" y1="3" y2="45" gradientTransform="matrix(0.8,0,0,0.8,0,0)" gradientUnits="userSpaceOnUse"><stop offset="0" stop-color="#F3FCFF" stop-opacity="1"/><stop offset="1" stop-color="#000" stop-opacity="1"/></linearGradient><linearGradient id="linear41" x1="44" x2="44" y1="3" y2="45" gradientTransform="matrix(0.8,0,0,0.8,0,0)" gradientUnits="userSpaceOnUse"><stop offset="0" stop-color="#F9FDFF" stop-opacity="1"/><stop offset="1" stop-color="#000" stop-opacity="1"/></linearGradient><clipPath id="clip1"><rect width="39" height="39"/></clipPath><g id="surface15" clip-path="url(#clip1)"><path fill="url(#linear0)" fill-rule="nonzero" stroke="none" d="M 2.398438 2.398438 L 3.199219 2.398438 L 3.199219 36 L 2.398438 36 Z M 2.398438 2.398438"/><path fill="url(#linear1)" fill-rule="nonzero" stroke="none" d="M 3.199219 2.398438 L 4 2.398438 L 4 36 L 3.199219 36 Z M 3.199219 2.398438"/><path fill="url(#linear2)" fill-rule="nonzero" stroke="none" d="M 4 2.398438 L 4.800781 2.398438 L 4.800781 36 L 4 36 Z M 4 2.398438"/><path fill="url(#linear3)" fill-rule="nonzero" stroke="none" d="M 4.800781 2.398438 L 5.601562 2.398438 L 5.601562 36 L 4.800781 36 Z M 4.800781 2.398438"/><path fill="url(#linear4)" fill-rule="nonzero" stroke="none" d="M 5.601562 2.398438 L 6.402344 2.398438 L 6.402344 36 L 5.601562 36 Z M 5.601562 2.398438"/><path fill="url(#linear5)" fill-rule="nonzero" stroke="none" d="M 6.398438 2.398438 L 7.199219 2.398438 L 7.199219 36 L 6.398438 36 Z M 6.398438 2.398438"/><path fill="url(#linear6)" fill-rule="nonzero" stroke="none" d="M 7.199219 2.398438 L 8 2.398438 L 8 36 L 7.199219 36 Z M 7.199219 2.398438"/><path fill="url(#linear7)" fill-rule="nonzero" stroke="none" d="M 8 2.398438 L 8.800781 2.398438 L 8.800781 36 L 8 36 Z M 8 2.398438"/><path fill="url(#linear8)" fill-rule="nonzero" stroke="none" d="M 8.800781 2.398438 L 9.601562 2.398438 L 9.601562 36 L 8.800781 36 Z M 8.800781 2.398438"/><path fill="url(#linear9)" fill-rule="nonzero" stroke="none" d="M 9.601562 2.398438 L 10.402344 2.398438 L 10.402344 36 L 9.601562 36 Z M 9.601562 2.398438"/><path fill="url(#linear10)" fill-rule="nonzero" stroke="none" d="M 10.398438 2.398438 L 11.199219 2.398438 L 11.199219 36 L 10.398438 36 Z M 10.398438 2.398438"/><path fill="url(#linear11)" fill-rule="nonzero" stroke="none" d="M 11.199219 2.398438 L 12 2.398438 L 12 36 L 11.199219 36 Z M 11.199219 2.398438"/><path fill="url(#linear12)" fill-rule="nonzero" stroke="none" d="M 12 2.398438 L 12.800781 2.398438 L 12.800781 36 L 12 36 Z M 12 2.398438"/><path fill="url(#linear13)" fill-rule="nonzero" stroke="none" d="M 12.800781 2.398438 L 13.601562 2.398438 L 13.601562 36 L 12.800781 36 Z M 12.800781 2.398438"/><path fill="url(#linear14)" fill-rule="nonzero" stroke="none" d="M 13.601562 2.398438 L 14.402344 2.398438 L 14.402344 36 L 13.601562 36 Z M 13.601562 2.398438"/><path fill="url(#linear15)" fill-rule="nonzero" stroke="none" d="M 14.398438 2.398438 L 15.199219 2.398438 L 15.199219 36 L 14.398438 36 Z M 14.398438 2.398438"/><path fill="url(#linear16)" fill-rule="nonzero" stroke="none" d="M 15.199219 2.398438 L 16 2.398438 L 16 36 L 15.199219 36 Z M 15.199219 2.398438"/><path fill="url(#linear17)" fill-rule="nonzero" stroke="none" d="M 16 2.398438 L 16.800781 2.398438 L 16.800781 36 L 16 36 Z M 16 2.398438"/><path fill="url(#linear18)" fill-rule="nonzero" stroke="none" d="M 16.800781 2.398438 L 17.601562 2.398438 L 17.601562 36 L 16.800781 36 Z M 16.800781 2.398438"/><path fill="url(#linear19)" fill-rule="nonzero" stroke="none" d="M 17.601562 2.398438 L 18.402344 2.398438 L 18.402344 36 L 17.601562 36 Z M 17.601562 2.398438"/><path fill="url(#linear20)" fill-rule="nonzero" stroke="none" d="M 18.398438 2.398438 L 19.199219 2.398438 L 19.199219 36 L 18.398438 36 Z M 18.398438 2.398438"/><path fill="url(#linear21)" fill-rule="nonzero" stroke="none" d="M 19.199219 2.398438 L 20 2.398438 L 20 36 L 19.199219 36 Z M 19.199219 2.398438"/><path fill="url(#linear22)" fill-rule="nonzero" stroke="none" d="M 20 2.398438 L 20.800781 2.398438 L 20.800781 36 L 20 36 Z M 20 2.398438"/><path fill="url(#linear23)" fill-rule="nonzero" stroke="none" d="M 20.800781 2.398438 L 21.601562 2.398438 L 21.601562 36 L 20.800781 36 Z M 20.800781 2.398438"/><path fill="url(#linear24)" fill-rule="nonzero" stroke="none" d="M 21.601562 2.398438 L 22.402344 2.398438 L 22.402344 36 L 21.601562 36 Z M 21.601562 2.398438"/><path fill="url(#linear25)" fill-rule="nonzero" stroke="none" d="M 22.398438 2.398438 L 23.199219 2.398438 L 23.199219 36 L 22.398438 36 Z M 22.398438 2.398438"/><path fill="url(#linear26)" fill-rule="nonzero" stroke="none" d="M 23.199219 2.398438 L 24 2.398438 L 24 36 L 23.199219 36 Z M 23.199219 2.398438"/><path fill="url(#linear27)" fill-rule="nonzero" stroke="none" d="M 24 2.398438 L 24.800781 2.398438 L 24.800781 36 L 24 36 Z M 24 2.398438"/><path fill="url(#linear28)" fill-rule="nonzero" stroke="none" d="M 24.800781 2.398438 L 25.601562 2.398438 L 25.601562 36 L 24.800781 36 Z M 24.800781 2.398438"/><path fill="url(#linear29)" fill-rule="nonzero" stroke="none" d="M 25.601562 2.398438 L 26.402344 2.398438 L 26.402344 36 L 25.601562 36 Z M 25.601562 2.398438"/><path fill="url(#linear30)" fill-rule="nonzero" stroke="none" d="M 26.398438 2.398438 L 27.199219 2.398438 L 27.199219 36 L 26.398438 36 Z M 26.398438 2.398438"/><path fill="url(#linear31)" fill-rule="nonzero" stroke="none" d="M 27.199219 2.398438 L 28 2.398438 L 28 36 L 27.199219 36 Z M 27.199219 2.398438"/><path fill="url(#linear32)" fill-rule="nonzero" stroke="none" d="M 28 2.398438 L 28.800781 2.398438 L 28.800781 36 L 28 36 Z M 28 2.398438"/><path fill="url(#linear33)" fill-rule="nonzero" stroke="none" d="M 28.800781 2.398438 L 29.601562 2.398438 L 29.601562 36 L 28.800781 36 Z M 28.800781 2.398438"/><path fill="url(#linear34)" fill-rule="nonzero" stroke="none" d="M 29.601562 2.398438 L 30.402344 2.398438 L 30.402344 36 L 29.601562 36 Z M 29.601562 2.398438"/><path fill="url(#linear35)" fill-rule="nonzero" stroke="none" d="M 30.398438 2.398438 L 31.199219 2.398438 L 31.199219 36 L 30.398438 36 Z M 30.398438 2.398438"/><path fill="url(#linear36)" fill-rule="nonzero" stroke="none" d="M 31.199219 2.398438 L 32 2.398438 L 32 36 L 31.199219 36 Z M 31.199219 2.398438"/><path fill="url(#linear37)" fill-rule="nonzero" stroke="none" d="M 32 2.398438 L 32.800781 2.398438 L 32.800781 36 L 32 36 Z M 32 2.398438"/><path fill="url(#linear38)" fill-rule="nonzero" stroke="none" d="M 32.800781 2.398438 L 33.601562 2.398438 L 33.601562 36 L 32.800781 36 Z M 32.800781 2.398438"/><path fill="url(#linear39)" fill-rule="nonzero" stroke="none" d="M 33.601562 2.398438 L 34.402344 2.398438 L 34.402344 36 L 33.601562 36 Z M 33.601562 2.398438"/><path fill="url(#linear40)" fill-rule="nonzero" stroke="none" d="M 34.398438 2.398438 L 35.199219 2.398438 L 35.199219 36 L 34.398438 36 Z M 34.398438 2.398438"/><path fill="url(#linear41)" fill-rule="nonzero" stroke="none" d="M 35.199219 2.398438 L 36 2.398438 L 36 36 L 35.199219 36 Z M 35.199219 2.398438"/></g></defs><g id="surface11"><path fill="none" stroke="#000" stroke-linecap="butt" stroke-linejoin="round" stroke-miterlimit="10" stroke-opacity=".4" stroke-width="3" d="M 3.500977 3.500977 L 44.501953 3.500977 L 44.501953 44.501953 L 3.500977 44.501953 Z M 3.500977 3.500977" transform="matrix(0.8,0,0,0.8,0,0)"/><use xlink:href="#surface15"/><path fill="none" stroke="#FFF" stroke-linecap="butt" stroke-linejoin="round" stroke-miterlimit="10" stroke-opacity=".25" stroke-width="1" d="M 3.500977 3.500977 L 44.501953 3.500977 L 44.501953 44.501953 L 3.500977 44.501953 Z M 3.500977 3.500977" transform="matrix(0.8,0,0,0.8,0,0)"/></g></svg>