<svg xmlns="http://www.w3.org/2000/svg" xmlns:ns3="http://www.openswatchbook.org/uri/2009/osb" id="svg1" width="16" height="16" version="1.1"><title id="title13694">MyPaint symbolic icons</title><metadata id="metadata7"/><g id="layer1" transform="translate(-208 -524.36)"><g id="layer2" fill="#859f46" display="none" opacity=".5" transform="translate(229.28 556.07)"><rect id="48x48" width="48" height="48" x="-2.25" y="4.25" color="#000" display="inline"/><rect id="32x32" width="32" height="32" x="53.75" y="20.25" color="#000" display="inline"/><rect id="24x24" width="24" height="24" x="93.75" y="28.25" color="#000" display="inline"/><rect id="22x22" width="22" height="22" x="125.75" y="30.25" color="#000" display="inline"/></g><rect id="rect4505-4-4" width="14" height="1" x="209" y="538.36" fill="#bebebe" color="#000" rx="0" ry=".354"/><path id="path4760" fill="#bebebe" d="m213.5 524.36 0.5 3h4l0.5-3z" color="#000"/><path id="path5783" fill="#bebebe" d="m219 531.36c0 0.48277-0.11403 1.1936-0.31664 1.9586-0.49272 1.8605-2.0093 4.0414-3.1834 4.0414 0-3-1.1429-3.3653-1.6903-3.95-0.5-0.53-0.81-1.26-0.81-2.05 0-1.6568 1.3432-3 3-3s3 1.3432 3 3z" color="#000"/></g></svg>