<svg xmlns="http://www.w3.org/2000/svg" xmlns:ns3="http://www.openswatchbook.org/uri/2009/osb" id="svg1" width="16" height="16" version="1.1"><title id="title13694">MyPaint symbolic icons</title><metadata id="metadata7"/><g id="layer1" transform="translate(-16 -844.36)"><g id="layer2" fill="#859f46" display="none" opacity=".5" transform="translate(229.28 556.07)"><rect id="48x48" width="48" height="48" x="-2.25" y="4.25" color="#000" display="inline"/><rect id="32x32" width="32" height="32" x="53.75" y="20.25" color="#000" display="inline"/><rect id="24x24" width="24" height="24" x="93.75" y="28.25" color="#000" display="inline"/><rect id="22x22" width="22" height="22" x="125.75" y="30.25" color="#000" display="inline"/></g><path style="block-progression:tb;text-indent:0;text-transform:none" id="use4281" fill="#bebebe" d="m18 856.36v-1c0.0025-0.25358 0.10532-0.50485 0.28125-0.6875l5.719-5.71 5.7188 5.7188c0.17592 0.18265 0.27871 0.43392 0.28125 0.6875v1h-1c-0.26399 0.006-0.52862-0.098-0.71875-0.28125l-4.281-4.29-4.281 4.28c-0.19 0.18-0.455 0.29-0.719 0.28h-1z" color="#000" font-family="Sans" line-height="normal"/></g></svg>