<svg xmlns="http://www.w3.org/2000/svg" xmlns:svg="http://www.w3.org/2000/svg" xmlns:xlink="http://www.w3.org/1999/xlink" id="svg2985" width="48" height="48" version="1.1"><title id="title3811">Icon for &quot;colour&quot; or &quot;RGB colour&quot;</title><defs id="defs2987"><linearGradient id="linearGradient5834"><stop id="stop5836" offset="0" stop-color="#000" stop-opacity="1"/><stop id="stop5838" offset="1" stop-color="#000" stop-opacity="0"/></linearGradient><linearGradient id="linearGradient4582"><stop id="stop4584" offset="0" stop-color="#ffc1c4" stop-opacity="1"/><stop id="stop4586" offset="1" stop-color="#dc0000" stop-opacity="1"/></linearGradient><linearGradient id="linearGradient3215-8"><stop id="stop3217-4" offset="0" stop-color="#cdffd0" stop-opacity="1"/><stop id="stop3219-1" offset="1" stop-color="#0c0" stop-opacity="1"/></linearGradient><linearGradient id="linearGradient3275-9"><stop id="stop3277-8" offset="0" stop-color="#cbcfff" stop-opacity="1"/><stop id="stop3279-2" offset="1" stop-color="#0000dc" stop-opacity="1"/></linearGradient><linearGradient id="linearGradient3224-1"><stop id="stop3226-7" offset="0" stop-color="#ffc6ff" stop-opacity="1"/><stop id="stop3228-5" offset="1" stop-color="#cb00ff" stop-opacity="1"/></linearGradient><linearGradient id="linearGradient3283-6"><stop id="stop3285-3" offset="0" stop-color="#ffffcb" stop-opacity="1"/><stop id="stop3287-8" offset="1" stop-color="#ffcf00" stop-opacity="1"/></linearGradient><linearGradient id="linearGradient3443-2-4"><stop id="stop3445-6-6" offset="0" stop-color="#fff" stop-opacity="1"/><stop id="stop3447-7-4" offset="1" stop-color="#d2d4d9" stop-opacity="1"/></linearGradient><linearGradient id="linearGradient3218-6"><stop id="stop3220-4" offset="0" stop-color="#e4ffff" stop-opacity="1"/><stop id="stop3222-8" offset="1" stop-color="#00b3fe" stop-opacity="1"/></linearGradient><radialGradient id="radialGradient7281" cx="40" cy="56.122" r="20" fx="40" fy="56.122" gradientTransform="matrix(1,0,0,0.37902439,0,34.850364)" gradientUnits="userSpaceOnUse" xlink:href="#linearGradient5834"/><linearGradient id="linearGradient7298" x1="34" x2="45.5" y1="35.5" y2="47" gradientTransform="translate(-16.000001,-12)" gradientUnits="userSpaceOnUse" xlink:href="#linearGradient3443-2-4"/><linearGradient id="linearGradient7302" x1="26.5" x2="45.5" y1="33" y2="46.5" gradientTransform="translate(-16.000001,-12)" gradientUnits="userSpaceOnUse" xlink:href="#linearGradient3224-1"/><linearGradient id="linearGradient7305" x1="18" x2="30" y1="34" y2="45.5" gradientUnits="userSpaceOnUse" xlink:href="#linearGradient3218-6"/><linearGradient id="linearGradient7308" x1="40" x2="53.5" y1="33" y2="47" gradientTransform="translate(-16.000001,-12)" gradientUnits="userSpaceOnUse" xlink:href="#linearGradient3283-6"/><linearGradient id="linearGradient7314" x1="8.865" x2="14.385" y1="-.154" y2="7.846" gradientTransform="matrix(3.7142857,0,0,3.2499999,-29.928573,21.5)" gradientUnits="userSpaceOnUse" xlink:href="#linearGradient3275-9"/><linearGradient id="linearGradient7317" x1="12.5" x2="15.142" y1="4" y2="6.296" gradientTransform="matrix(3.7142857,0,0,3.2500001,-14.928571,21.5)" gradientUnits="userSpaceOnUse" xlink:href="#linearGradient3215-8"/><linearGradient id="linearGradient7320" x1="11" x2="36.5" y1="8.5" y2="21" gradientUnits="userSpaceOnUse" xlink:href="#linearGradient4582"/></defs><metadata id="metadata2990"/><g id="layer1" display="inline" transform="translate(0,-4)"><g id="g7342"><path id="path5832" fill="url(#radialGradient7281)" fill-opacity="1" fill-rule="nonzero" stroke="none" stroke-width="1" d="m 60,56.121952 c 0,4.186588 -8.954305,7.580488 -20,7.580488 -11.045695,0 -20,-3.3939 -20,-7.580488 0,-4.186588 8.954305,-7.580488 20,-7.580488 11.045695,0 20,3.3939 20,7.580488 z" color="#000" display="inline" enable-background="accumulate" opacity=".5" overflow="visible" transform="matrix(1,0,0,0.98938224,-16,-11.026062)" visibility="visible" style="marker:none"/><g id="g7326"><path id="path4101-0" fill="#0000a0" fill-opacity="1" fill-rule="nonzero" stroke="none" stroke-width="0" d="m 54,33.5 c 0,7.731986 -6.268014,14 -14,14 -7.731986,0 -14,-6.268014 -14,-14 0,-7.731986 6.268014,-14 14,-14 7.731986,0 14,6.268014 14,14 z" color="#000" display="inline" enable-background="accumulate" overflow="visible" transform="matrix(1.0357143,0,0,1.0357142,-24.928575,-0.1964271)" visibility="visible" style="marker:none"/><path id="path4101-4" fill="#008100" fill-opacity="1" fill-rule="nonzero" stroke="none" stroke-width="0" d="m 54,33.5 c 0,7.731986 -6.268014,14 -14,14 -7.731986,0 -14,-6.268014 -14,-14 0,-7.731986 6.268014,-14 14,-14 7.731986,0 14,6.268014 14,14 z" color="#000" display="inline" enable-background="accumulate" overflow="visible" transform="matrix(1.0357143,0,0,1.0357143,-9.9285746,-0.1964299)" visibility="visible" style="marker:none"/><path id="path4101" fill="#a00000" fill-opacity="1" fill-rule="nonzero" stroke="none" stroke-width="0" d="m 54,33.5 c 0,7.731986 -6.268014,14 -14,14 -7.731986,0 -14,-6.268014 -14,-14 0,-7.731986 6.268014,-14 14,-14 7.731986,0 14,6.268014 14,14 z" color="#000" display="inline" enable-background="accumulate" overflow="visible" transform="matrix(1.0357143,0,0,1.0357143,-17.428572,-13.196429)" visibility="visible" style="marker:none"/><path id="path3215-6" fill="url(#linearGradient7320)" fill-opacity="1" fill-rule="nonzero" stroke="#ff8282" stroke-opacity="1" d="m 36.999999,21.494351 a 13,12.994561 0 0 1 -26,0 13,12.994561 0 1 1 26,0 z" display="inline"/><path id="path3223-4" fill="url(#linearGradient7317)" fill-opacity="1" fill-rule="nonzero" stroke="#82ff82" stroke-opacity="1" d="m 44.499999,34.5 a 13,13 0 0 1 -26,0 13,13 0 1 1 26,0 z" display="inline"/><path id="path3219-5" fill="url(#linearGradient7314)" fill-opacity="1" fill-rule="nonzero" stroke="#8282ff" stroke-opacity="1" d="m 29.499998,34.5 a 13,13 0 0 1 -25.999999,0 13,13 0 1 1 26,0 z" display="inline"/><path id="path4101-03" fill="#9f00a0" fill-opacity="1" fill-rule="nonzero" stroke="none" stroke-width="0" d="m 16.499999,20 c -2.543129,0 -4.922052,0.662446 -7,1.8125 0.169191,7.861247 6.59817,14.1875 14.5,14.1875 2.543129,0 4.922052,-0.662446 7,-1.8125 C 30.830808,26.326253 24.401829,20 16.499999,20 z" color="#000" display="inline" enable-background="accumulate" overflow="visible" visibility="visible" style="marker:none"/><path id="path4101-3" fill="#a0a000" fill-opacity="1" fill-rule="nonzero" stroke="none" stroke-width="0" d="m 31.499999,20 c -7.90183,0 -14.330809,6.326253 -14.5,14.1875 2.077948,1.150054 4.456871,1.8125 7,1.8125 7.90183,0 14.330809,-6.326253 14.5,-14.1875 C 36.422051,20.662446 34.043128,20 31.499999,20 z" color="#000" display="inline" enable-background="accumulate" overflow="visible" visibility="visible" style="marker:none"/><path id="path4101-4-7" fill="#008383" fill-opacity="1" fill-rule="nonzero" stroke="none" stroke-width="0" d="m 23.999999,22.125 c -4.181541,2.543988 -7,7.122583 -7,12.375 0,5.252417 2.818459,9.831012 7,12.375 4.181541,-2.543987 7,-7.122583 7,-12.375 0,-5.252417 -2.818459,-9.831013 -7,-12.375 z" color="#000" display="inline" enable-background="accumulate" overflow="visible" visibility="visible" style="marker:none"/><path id="path3215-6-88" fill="url(#linearGradient7308)" fill-opacity="1" fill-rule="nonzero" stroke="#ffffa0" stroke-opacity="1" d="m 31.874999,21.5 a 13,13 0 0 0 -13.3125,11.78125 13,12.994561 0 0 0 18.375,-10.5625 13,13 0 0 0 -5.0625,-1.21875 z" color="#000" display="inline" enable-background="accumulate" overflow="visible" visibility="visible" style="marker:none"/><path id="path3223-4-1" fill="url(#linearGradient7305)" fill-opacity="1" fill-rule="nonzero" stroke="#a1ffff" stroke-opacity="1" d="m 23.999999,23.90625 a 13,13 0 0 0 -5.5,10.59375 13,13 0 0 0 5.5,10.59375 13,13 0 0 0 5.5,-10.59375 13,13 0 0 0 -5.5,-10.59375 z" color="#000" display="inline" enable-background="accumulate" overflow="visible" visibility="visible" style="marker:none"/><path id="path3215-6-89" fill="url(#linearGradient7302)" fill-opacity="1" fill-rule="nonzero" stroke="#ff82ff" stroke-opacity="1" d="m 16.874999,21.5 a 13,13 0 0 0 -5.8125,1.1875 13,12.994561 0 0 0 18.375,10.59375 A 13,13 0 0 0 16.874999,21.5 z" color="#000" display="inline" enable-background="accumulate" overflow="visible" visibility="visible" style="marker:none"/><path id="path4101-0-6" fill="#a0a0a0" fill-opacity="1" fill-rule="nonzero" stroke="none" stroke-width="0" d="m 23.999999,22.125 c -4.096915,2.492502 -6.889813,6.942812 -7,12.0625 2.077948,1.150054 4.456871,1.8125 7,1.8125 2.543129,0 4.922052,-0.662446 7,-1.8125 -0.110187,-5.119688 -2.903085,-9.569998 -7,-12.0625 z" color="#000" display="inline" enable-background="accumulate" overflow="visible" visibility="visible" style="marker:none"/><path id="path3215-6-2" fill="url(#linearGradient7298)" fill-opacity="1" fill-rule="nonzero" stroke="#fff" stroke-opacity="1" stroke-width="1" d="m 23.999999,23.90625 a 13,13 0 0 0 -5.4375,9.375 13,12.994561 0 0 0 10.875,0 13,13 0 0 0 -5.4375,-9.375 z" color="#000" display="inline" enable-background="accumulate" overflow="visible" visibility="visible" style="marker:none"/></g></g></g></svg>