<svg xmlns="http://www.w3.org/2000/svg" xmlns:ns3="http://www.openswatchbook.org/uri/2009/osb" id="svg1" width="16" height="16" version="1.1"><title id="title13694">MyPaint symbolic icons</title><metadata id="metadata7"/><g id="layer1" transform="translate(-208 -556.36)"><g id="layer2" fill="#859f46" display="none" opacity=".5" transform="translate(229.28 556.07)"><rect id="48x48" width="48" height="48" x="-2.25" y="4.25" color="#000" display="inline"/><rect id="32x32" width="32" height="32" x="53.75" y="20.25" color="#000" display="inline"/><rect id="24x24" width="24" height="24" x="93.75" y="28.25" color="#000" display="inline"/><rect id="22x22" width="22" height="22" x="125.75" y="30.25" color="#000" display="inline"/></g><path id="rect34161-2" fill="#bebebe" fill-rule="evenodd" d="m216.7 570.36c-0.3878 0-0.7 0.223-0.7 0.5s0.3122 0.5 0.7 0.5h1.4 4.2 0.7v-0.5-0.5h-0.7-4.2-1.4z" color="#000"/><path id="path34166-7" fill="#bebebe" fill-rule="evenodd" d="m211.3 570.36c0.3878 0 0.7 0.223 0.7 0.5s-0.3122 0.5-0.7 0.5h-2.3v-0.5-0.5h2.3z" color="#000"/><path id="path31387-7-9" fill="#bebebe" d="m211 562.36v7h10v-7z" color="#000"/><path id="rect31389-8-5" fill="#bebebe" d="m212 560.36v3h2v-3c0-1.108 0.892-2 2-2s2 0.892 2 2v3h2v-3c0-2.3808-1.6025-4-4-4s-3.9303 1.6907-4 4z" color="#000"/></g></svg>