<svg xmlns="http://www.w3.org/2000/svg" xmlns:ns3="http://www.openswatchbook.org/uri/2009/osb" id="svg1" width="24" height="24" version="1.1"><title id="title13694">MyPaint symbolic icons</title><metadata id="metadata7"/><g id="layer1" transform="translate(-360 -676.36)"><g id="layer2" fill="#859f46" display="none" opacity=".5" transform="translate(229.28 556.07)"><rect id="48x48" width="48" height="48" x="-2.25" y="4.25" color="#000" display="inline"/><rect id="32x32" width="32" height="32" x="53.75" y="20.25" color="#000" display="inline"/><rect id="22x22" width="22" height="22" x="125.75" y="30.25" color="#000" display="inline"/><rect id="16x16" width="16" height="16" x="155.75" y="36.25" color="#000" display="inline"/></g><path style="block-progression:tb;text-indent:0;text-transform:none" id="use4929" fill="#bebebe" d="m361 678.38v1 4a1.0001 1.0001 0 1 0 2 0v-3h4a1.0001 1.0001 0 1 0 0 -2h-5-1zm15.812 0a1.0044 1.0044 0 1 0 0.1875 2h4v3a1.0001 1.0001 0 1 0 2 0v-4-1h-1-5a1.0001 1.0001 0 0 0 -0.1875 0zm-14.93 13.96a1.0001 1.0001 0 0 0 -0.88 1.04v4 1h1 5a1.0001 1.0001 0 1 0 0 -2h-4v-3a1.0001 1.0001 0 0 0 -1.125 -1.0312zm20 0a1.0001 1.0001 0 0 0 -0.88 1.04v3h-4a1.0001 1.0001 0 1 0 0 2h5 1v-1-4a1.0001 1.0001 0 0 0 -1.125 -1.0312z" color="#000" font-family="Sans" line-height="normal" opacity=".3"/><path style="block-progression:tb;text-indent:0;text-transform:none" id="path5046-1-5" fill="#bebebe" d="m371.03 695.3c0.90031 0.12643 1.8443 0.0619 2.775-0.1875a1.0001 1.0001 0 1 0 -0.4875 -1.9125c-2.6788 0.71778-5.4322-0.84622-6.15-3.525-0.11309-0.42206-0.15-0.87554-0.15-1.3125a1.0125 1.0125 0 1 0 -2.025 0c0 0.61174 0.10417 1.2091 0.2625 1.8 0.74814 2.7921 3.074 4.7582 5.775 5.1375z" color="#000" font-family="Sans" line-height="normal"/><path style="block-progression:tb;text-indent:0;text-transform:none" id="path5046-8" fill="#bebebe" d="m372.98 681.42c-0.90031-0.12643-1.8443-0.0619-2.775 0.1875a1.0001 1.0001 0 1 0 0.4875 1.9125c2.6788-0.71778 5.4322 0.84622 6.15 3.525 0.11309 0.42206 0.15 0.87554 0.15 1.3125a1.0125 1.0125 0 0 0 2.025 0c0-0.61174-0.10417-1.2091-0.2625-1.8-0.74814-2.7921-3.074-4.7582-5.775-5.1375z" color="#000" font-family="Sans" line-height="normal"/><path id="path3228-0-7-9-2" fill="#bebebe" d="m370 688.36h-8v-0.5l4-3.5 4 3.5z"/><path id="path3228-0-7-9-2-5" fill="#bebebe" d="m374 688.36h8v0.5l-4 3.5-4-3.5z"/></g></svg>