<svg xmlns="http://www.w3.org/2000/svg" xmlns:ns3="http://www.openswatchbook.org/uri/2009/osb" id="svg1" width="24" height="24.028" version="1.1"><metadata id="metadata7"/><g id="layer1" transform="translate(-168 -516.33)"><g id="layer2" fill="#859f46" display="none" opacity=".5" transform="translate(229.28 556.07)"><rect id="48x48" width="48" height="48" x="-2.25" y="4.25" color="#000" display="inline"/><rect id="32x32" width="32" height="32" x="53.75" y="20.25" color="#000" display="inline"/><rect id="22x22" width="22" height="22" x="125.75" y="30.25" color="#000" display="inline"/><rect id="16x16" width="16" height="16" x="155.75" y="36.25" color="#000" display="inline"/></g><path style="block-progression:tb;text-indent:0;text-transform:none" id="rect10788-3-0" fill="#bebebe" d="m173 517.36c-1.636 0-3 1.364-3 3v17c0 1.636 1.364 3 3 3h13c1.636 0 3-1.364 3-3v-17c0-1.636-1.364-3-3-3v2.375c0.014 0.5881-0.35288 1.1677-0.89045 1.4066-0.53757 0.23892-1.2137 0.12287-1.6408-0.28163-0.54016 0.46971-1.4286 0.46971-1.9688 0-0.54394 0.48642-1.4561 0.48642-2 0-0.54739 0.50355-1.4838 0.50355-2.0312 0-0.54016 0.46971-1.4286 0.46971-1.9688 0-0.85917 0.76814-2.5051 0.0275-2.5-1.125z" color="#000" enable-background="new" font-family="Sans" line-height="normal"/><path style="block-progression:tb;text-indent:0;text-transform:none" id="path3601-2-3-3-9-36-8-5-2-0" fill="#bebebe" d="m174.44 516.34a0.50005 0.50005 0 0 0 -0.44 0.54v3a0.50005 0.50005 0 1 0 1 0v-3a0.50005 0.50005 0 0 0 -0.5625 -0.53125zm2 0a0.50005 0.50005 0 0 0 -0.44 0.54v3a0.50005 0.50005 0 1 0 1 0v-3a0.50005 0.50005 0 0 0 -0.5625 -0.53125zm2 0a0.50005 0.50005 0 0 0 -0.44 0.54v3a0.50005 0.50005 0 1 0 1 0v-3a0.50005 0.50005 0 0 0 -0.5625 -0.53125zm2 0a0.50005 0.50005 0 0 0 -0.44 0.54v3a0.50005 0.50005 0 1 0 1 0v-3a0.50005 0.50005 0 0 0 -0.5625 -0.53125zm2 0a0.50005 0.50005 0 0 0 -0.44 0.54v3a0.50005 0.50005 0 1 0 1 0v-3a0.50005 0.50005 0 0 0 -0.5625 -0.53125zm2 0a0.50005 0.50005 0 0 0 -0.44 0.54v3a0.50005 0.50005 0 1 0 1 0v-3a0.50005 0.50005 0 0 0 -0.5625 -0.53125z" color="#000" font-family="Sans" line-height="normal"/><path id="path3601-2-3-3-9-36-8-5-2-6" fill="none" d="m186.5 516.86-1 4m-0.99998-4-1 4m-1-4-1 4m-0.99999-4-1 4m-1-4-1 4m-1-4-1 4m-1-4-1 4"/></g></svg>