<svg xmlns="http://www.w3.org/2000/svg" xmlns:ns3="http://www.openswatchbook.org/uri/2009/osb" id="svg1" width="24" height="24" version="1.1"><metadata id="metadata7"/><g id="layer1" transform="translate(-408 -524.36)"><g id="layer2" fill="#859f46" display="none" opacity=".5" transform="translate(229.28 556.07)"><rect id="48x48" width="48" height="48" x="-2.25" y="4.25" color="#000" display="inline"/><rect id="32x32" width="32" height="32" x="53.75" y="20.25" color="#000" display="inline"/><rect id="22x22" width="22" height="22" x="125.75" y="30.25" color="#000" display="inline"/><rect id="16x16" width="16" height="16" x="155.75" y="36.25" color="#000" display="inline"/></g><path style="block-progression:tb;text-indent:0;text-transform:none" id="use24343-3" fill="#bebebe" d="m413.5 536.37c-3.0316 0-5.4972 2.4655-5.4972 5.4972 0 3.0316 2.4655 5.4972 5.4972 5.4972 3.0316 0 5.4972-2.4655 5.4972-5.4972 0-3.0316-2.4655-5.4972-5.4972-5.4972zm0 0.98011c2.4912 0 4.517 2.0258 4.517 4.517s-2.0258 4.517-4.517 4.517-4.517-2.0258-4.517-4.517 2.0258-4.517 4.517-4.517z" color="#000" font-family="Sans" line-height="normal"/><path style="block-progression:tb;text-indent:0;text-transform:none" id="path24341-5" fill="#bebebe" d="m419.5 526.37c-3.0316 0-5.4972 2.4655-5.4972 5.4972 0 3.0316 2.4655 5.4972 5.4972 5.4972 3.0316 0 5.4972-2.4655 5.4972-5.4972 0-3.0316-2.4655-5.4972-5.4972-5.4972zm0 0.98011c2.4912 0 4.517 2.0258 4.517 4.517s-2.0258 4.517-4.517 4.517-4.517-2.0258-4.517-4.517 2.0258-4.517 4.517-4.517z" color="#000" font-family="Sans" line-height="normal"/><path style="block-progression:tb;text-indent:0;text-transform:none" id="use24345-5" fill="#bebebe" d="m425.5 536.37c-3.0316 0-5.4972 2.4655-5.4972 5.4972 0 3.0316 2.4655 5.4972 5.4972 5.4972 3.0316 0 5.4972-2.4655 5.4972-5.4972 0-3.0316-2.4655-5.4972-5.4972-5.4972zm0 0.98011c2.4912 0 4.517 2.0258 4.517 4.517s-2.0258 4.517-4.517 4.517-4.517-2.0258-4.517-4.517 2.0258-4.517 4.517-4.517z" color="#000" font-family="Sans" line-height="normal"/><path id="path24387" fill="#bebebe" d="m365.09 153a3.0882 3.0882 0 1 1 -6.1764 0 3.0882 3.0882 0 1 1 6.1764 0z" color="#000" transform="matrix(1.1333 0 0 1.1333 15.232 368.46)"/><path id="use24397" fill="#bebebe" d="m365.09 153a3.0882 3.0882 0 1 1 -6.1764 0 3.0882 3.0882 0 1 1 6.1764 0z" color="#000" opacity=".3" transform="matrix(1.1333 0 0 1.1333 3.2315 368.46)"/></g></svg>