<svg xmlns="http://www.w3.org/2000/svg" xmlns:ns3="http://www.openswatchbook.org/uri/2009/osb" id="svg1" width="24" height="24.001" version="1.1"><title id="title13694">MyPaint symbolic icons</title><metadata id="metadata7"/><g id="layer1" transform="translate(-120 -740.36)"><g id="layer2" fill="#859f46" display="none" opacity=".5" transform="translate(229.28 556.07)"><rect id="48x48" width="48" height="48" x="-2.25" y="4.25" color="#000" display="inline"/><rect id="32x32" width="32" height="32" x="53.75" y="20.25" color="#000" display="inline"/><rect id="22x22" width="22" height="22" x="125.75" y="30.25" color="#000" display="inline"/><rect id="16x16" width="16" height="16" x="155.75" y="36.25" color="#000" display="inline"/></g><path id="path4593-9-9" fill="#bebebe" d="m131.38 750.54c-0.27852-0.263-0.55539-0.70058-0.8284-1.3138-1.3333-3.0661-3.0603-7.6587-6.0027-8.4844-0.99768-0.2799-1.8889-0.3087-2.8594-0.375l-0.00015-0.00063c-0.23436-0.0161-0.82373 0.25215-0.89063 0.375-0.72444 2.9327-0.0337 7.4226 0.47144 9.7969 0.49432 0.9574 1.7896 1.3492 3.3281 1.3125 0.68732-0.0236 0.75 0 2.25 0-1.9117 0.13455-3.8438 0.51562-4.5938 1.2656-1.5 1.5-0.44739 4.7851 0.75 6.75 0.76566 1.2564 2.2315 3.9046 3.6562 3.5 1.5753-1.0954 0.0937-5 4.5938-8.75v0.14055c-0.25 0.60943-0.25 0.85951-0.25 1.8595v0.74993c-0.0105 0.79247 0.20745 2 1 2 0.79256 0 1.0112-1.2075 0.99999-2v-0.74993c0-1 0-1.2501-0.29686-1.8595 0.0105-0.0741 0.0346-0.0519 0.0468-0.14055 4.5 3.75 3.0185 7.6546 4.5938 8.75 1.4247 0.40465 2.8906-1.3217 3.6562-2.5781 1.1974-1.9649 2.25-6.1719 0.75-7.6719-0.75-0.75-2.682-1.1311-4.5938-1.2656 1.5 0 1.5627-0.0236 2.25 0 1.5385 0.0367 2.8338-0.3551 3.3281-1.3125 0.50522-2.3743 1.2843-6.8642 0.55982-9.7969-0.0669-0.12285-0.65627-0.39105-0.89063-0.375-0.97044 0.0663-1.8617 0.0951-2.8594 0.375-2.9543 0.82905-4.7558 5.4623-6.0911 8.5312-0.26353 0.57895-0.53067 0.99783-0.79939 1.2556-0.21789-0.38728-0.43577-0.77457-0.65366-1.1619z" color="#000"/><path id="path23899" fill="#bebebe" d="m221 297a1 1 0 1 1 -2 0 1 1 0 1 1 2 0z" color="#000" transform="translate(-88 452.36)"/><path style="block-progression:tb;text-indent:0;text-transform:none" id="path23901" fill="#bebebe" d="m130.84 745.5-0.6875 0.71875c0.44107 0.44107 0.63905 0.85466 0.8125 1.375s0.30196 1.1559 0.5625 1.9375l0.48 1.41 0.46875-1.4062c0.26054-0.78162 0.38905-1.4172 0.5625-1.9375 0.17345-0.52034 0.37143-0.93393 0.8125-1.375l-0.68-0.72c-0.55893 0.55893-0.86095 1.1766-1.0625 1.7812-0.0326 0.0978-0.0645 0.21381-0.0937 0.3125-0.0292-0.0987-0.0612-0.21472-0.0937-0.3125-0.20155-0.60466-0.50357-1.2223-1.0625-1.7812z" color="#000" font-family="Sans" line-height="normal"/><path id="path23903" fill="#bebebe" d="m220 291.75a0.25 0.25 0 1 1 -0.5 0 0.25 0.25 0 1 1 0.5 0z" color="#000" transform="matrix(3 0 0 3 -528.75 -129.39)"/><path id="path23903-6" fill="#bebebe" d="m220 291.75a0.25 0.25 0 1 1 -0.5 0 0.25 0.25 0 1 1 0.5 0z" color="#000" transform="matrix(3 0 0 3 -525.75 -129.39)"/></g></svg>