<svg xmlns="http://www.w3.org/2000/svg" id="svg1" width="24" height="24" version="1.1"><title id="title13694">MyPaint symbolic icons</title><metadata id="metadata7"/><g id="layer2" fill="#859f46" display="none" opacity=".5" transform="translate(189.28,-120.29)"><rect id="48x48" width="48" height="48" x="-2.25" y="4.25" color="#000" display="inline"/><rect id="32x32" width="32" height="32" x="53.75" y="20.25" color="#000" display="inline"/><rect id="24x24" width="24" height="24" x="93.75" y="28.25" color="#000" display="inline"/><rect id="22x22" width="22" height="22" x="125.75" y="30.25" color="#000" display="inline"/><rect id="16x16" width="16" height="16" x="155.75" y="36.25" color="#000" display="inline"/></g><path id="path4760-2-9" fill="#bebebe" d="m17 0 0.000015 7.5 4.5 1 2.5-5.5c-3 0-2-3-7-3z" color="#000"/><path id="path5783-3-4" fill="#bebebe" d="m17.375 9.03c-1.441 0.10183-2.8171 0.90481-3.5938 2.25-0.59458 1.0298-0.71888 2.1766-0.46875 3.25 0.26334 1.1302 1.3275 2.9602-0.625 6.5938-0.01073 0.009-0.02132 0.0213-0.03125 0.0312-0.09048 0.0905-0.15625 0.20568-0.15625 0.34375 0 0.27614 0.22386 0.5 0.5 0.5 2.2719-1.0891 4.9318-2.186 6.6875-3.9062 0.83697-0.84185 1.5442-1.6854 1.9062-2.3125 1.2426-2.1523 0.49606-4.9136-1.6562-6.1562-0.808-0.4662-1.698-0.6551-2.563-0.594z" color="#000"/><path id="path12296" fill="#bebebe" d="m3 0v0.5c6.7457 2.1875-0.97743 11.462 0.89195 19 2.108 8.5 6.286 2 6.286 2s-0.1779-2.5-0.42161-1.5c0 0-2.7563 4-3.7563-1-1.6756-8.3781 12.6-19-3-19z"/></svg>