<svg xmlns="http://www.w3.org/2000/svg" xmlns:svg="http://www.w3.org/2000/svg" id="svg1" width="24" height="24" version="1.1"><title id="title13694">MyPaint symbolic icons</title><metadata id="metadata7"/><g id="layer2" fill="#859f46" display="none" opacity=".5" transform="translate(189.28,-448.33)"><rect id="48x48" width="48" height="48" x="-2.25" y="4.25" color="#000" display="inline"/><rect id="32x32" width="32" height="32" x="53.75" y="20.25" color="#000" display="inline"/><rect id="24x24" width="24" height="24" x="93.75" y="28.25" color="#000" display="inline"/><rect id="22x22" width="22" height="22" x="125.75" y="30.25" color="#000" display="inline"/><rect id="16x16" width="16" height="16" x="155.75" y="36.25" color="#000" display="inline"/></g><path id="path5256-7-6-4" fill="#bebebe" d="m 1,22 4,-4 18,0 -4,4 z"/><path id="path24341-7-3" fill="#bebebe" d="M 7.5,2 C 5.5729,2 4,3.573 4,5.5 4,7.4271 5.5729,9 7.5,9 9.4271,9 11,7.4271 11,5.5 11,3.573 9.4271,2 7.5,2 Z m 0,1 C 8.8866,3 10,4.1134 10,5.5 10,6.8867 8.8866,8 7.5,8 6.1134,8 5,6.8867 5,5.5 5,4.1134 6.1134,3 7.5,3 Z" color="#000" color-rendering="auto" font-family="sans-serif" image-rendering="auto" line-height="normal" shape-rendering="auto" text-decoration="none" text-rendering="auto" style="line-height:normal;text-indent:0;text-decoration-line:none;text-decoration-style:solid;text-decoration-color:#000;text-transform:none;block-progression:tb;white-space:normal;isolation:auto;mix-blend-mode:normal;solid-color:#000"/><circle id="path14496-7-2" cx="11.5" cy="12.5" r="2" fill="#bebebe"/><circle id="use24347-3-2" cx="3.5" cy="12.5" r="2" fill="#bebebe" opacity=".3"/><path id="path24341-7-3-4" fill="#bebebe" d="M 3.5,9 C 1.5729,9 0,10.573 0,12.5 0,14.4271 1.5729,16 3.5,16 5.4271,16 7,14.4271 7,12.5 7,10.573 5.4271,9 3.5,9 Z m 0,1 C 4.8866,10 6,11.1134 6,12.5 6,13.8867 4.8866,15 3.5,15 2.1134,15 1,13.8867 1,12.5 1,11.1134 2.1134,10 3.5,10 Z" color="#000" color-rendering="auto" font-family="sans-serif" image-rendering="auto" line-height="normal" shape-rendering="auto" text-decoration="none" text-rendering="auto" style="line-height:normal;text-indent:0;text-decoration-line:none;text-decoration-style:solid;text-decoration-color:#000;text-transform:none;block-progression:tb;white-space:normal;isolation:auto;mix-blend-mode:normal;solid-color:#000"/><path id="path24341-7-3-6" fill="#bebebe" d="M 11.5,9 C 9.5729,9 8,10.573 8,12.5 8,14.4271 9.5729,16 11.5,16 13.4271,16 15,14.4271 15,12.5 15,10.573 13.4271,9 11.5,9 Z m 0,1 C 12.8866,10 14,11.1134 14,12.5 14,13.8867 12.8866,15 11.5,15 10.1134,15 9,13.8867 9,12.5 9,11.1134 10.1134,10 11.5,10 Z" color="#000" color-rendering="auto" font-family="sans-serif" image-rendering="auto" line-height="normal" shape-rendering="auto" text-decoration="none" text-rendering="auto" style="line-height:normal;text-indent:0;text-decoration-line:none;text-decoration-style:solid;text-decoration-color:#000;text-transform:none;block-progression:tb;white-space:normal;isolation:auto;mix-blend-mode:normal;solid-color:#000"/><path id="path4760-9-0-2" fill="#bebebe" d="M 23.5,1 22,7 18,6 18,-10e-5 C 21.5,0 20,1 23.5,1 Z" color="#000"/><path id="path5783-32-6-1" fill="#bebebe" d="m 18.719,7.5 c -0.96065,0.068 -1.8572,0.6032 -2.375,1.5 -0.39641,0.6865 -0.51049,1.4407 -0.34375,2.1563 0.17243,0.7399 0.89298,1.6042 -0.3125,3.9062 -0.01073,0.01 -0.02132,0.021 -0.03125,0.031 -0.09048,0.091 -0.15625,0.2057 -0.15625,0.3438 0,0.2761 0.22386,0.5 0.5,0.5 1.4366,-0.7173 3.172,-1.319 4.2812,-2.4063 0.55798,-0.5612 1.0086,-1.1132 1.25,-1.5312 0.82843,-1.4349 0.34112,-3.2654 -1.0938,-4.0938 -0.53808,-0.3107 -1.1424,-0.447 -1.7188,-0.4062 z" color="#000"/></svg>