<svg xmlns="http://www.w3.org/2000/svg" xmlns:ns3="http://www.openswatchbook.org/uri/2009/osb" id="svg1" width="24" height="24" version="1.1"><title id="title13694">MyPaint symbolic icons</title><metadata id="metadata7"/><g id="layer1" transform="translate(-232 -548.36)"><g id="layer2" fill="#859f46" display="none" opacity=".5" transform="translate(229.28 556.07)"><rect id="48x48" width="48" height="48" x="-2.25" y="4.25" color="#000" display="inline"/><rect id="32x32" width="32" height="32" x="53.75" y="20.25" color="#000" display="inline"/><rect id="22x22" width="22" height="22" x="125.75" y="30.25" color="#000" display="inline"/><rect id="16x16" width="16" height="16" x="155.75" y="36.25" color="#000" display="inline"/></g><path id="path31387-7-9-5" fill="#bebebe" d="m237 557.36v10h14v-10z" color="#000"/><path id="path30005-3" fill="#bebebe" d="m245.1 569.36c-0.60939 0-1.1 0.44601-1.1 1 0 0.554 0.49061 1 1.1 1h2.2 6.6 1.1v-1-1h-1.1-6.6-2.2z"/><path id="path30007-8" fill="#bebebe" d="m237.6 569.36c0.77559 0 1.4 0.44601 1.4 1 0 0.554-0.6244 1-1.4 1h-4.6v-1-1h4.6z"/><path style="block-progression:tb;text-indent:0;text-transform:none" id="path12048" fill="#bebebe" d="m244 549.36c-2.7496 0-5 2.2504-5 5v6h2v-6c0-1.6687 1.3313-3 3-3s3 1.3313 3 3v6h2v-6c0-2.7496-2.2504-5-5-5z" color="#000" font-family="Sans" line-height="normal"/></g></svg>