<svg xmlns="http://www.w3.org/2000/svg" xmlns:ns3="http://www.openswatchbook.org/uri/2009/osb" id="svg1" width="24" height="24" version="1.1"><title id="title13694">MyPaint symbolic icons</title><metadata id="metadata7"/><g id="layer1" transform="translate(-360 -484.36)"><g id="layer2" fill="#859f46" display="none" opacity=".5" transform="translate(229.28 556.07)"><rect id="48x48" width="48" height="48" x="-2.25" y="4.25" color="#000" display="inline"/><rect id="32x32" width="32" height="32" x="53.75" y="20.25" color="#000" display="inline"/><rect id="22x22" width="22" height="22" x="125.75" y="30.25" color="#000" display="inline"/><rect id="16x16" width="16" height="16" x="155.75" y="36.25" color="#000" display="inline"/></g><path id="path5186" fill="#bebebe" d="m364 507.86c-1 0-1.5-1-1.5-2s0.5-2 1.5-2h15.5c1 0 2.5-1 2.5-2v4c0 1-1 2-2 2z" color="#000" opacity=".3"/><path id="path5188" fill="#bebebe" d="m363.5 485.36c-0.5 0-1.5 0.5-1.5 1.5v20c0 1 1 1.5 1.5 1.5h16.5c1 0 2-1 2-2v-1c0 1-1 2-2 2h-15.5c-1 0-1.5-0.50001-1.5-1.5 0-1 0.5-1.5 1.5-1.5h15.5c1 0 2-0.99999 2-2v-15c0-0.99999-1-2-2-2h-5v9l1.5-1.5c0.28224-0.28223 0.60205-0.5 1-0.5h1.5v1.5c0 0.39795-0.21775 0.71776-0.5 1l-6 6-6-6c-0.28222-0.28226-0.49999-0.60205-0.5-1v-1.5h1.5c0.39795 0.00002 0.71776 0.21777 1 0.5l1.5 1.5v-9z" color="#000"/></g></svg>