<svg xmlns="http://www.w3.org/2000/svg" xmlns:ns3="http://www.openswatchbook.org/uri/2009/osb" id="svg1" width="24" height="24" version="1.1"><title id="title13694">MyPaint symbolic icons</title><metadata id="metadata7"/><g id="layer1" transform="translate(-120 -836.36)"><g id="layer2" fill="#859f46" display="none" opacity=".5" transform="translate(229.28 556.07)"><rect id="48x48" width="48" height="48" x="-2.25" y="4.25" color="#000" display="inline"/><rect id="32x32" width="32" height="32" x="53.75" y="20.25" color="#000" display="inline"/><rect id="22x22" width="22" height="22" x="125.75" y="30.25" color="#000" display="inline"/><rect id="16x16" width="16" height="16" x="155.75" y="36.25" color="#000" display="inline"/></g><path style="block-progression:tb;text-indent:0;text-transform:none" id="use4412" fill="#bebebe" d="m127 857.36h1.4998c0.25358-0.002 0.81735-0.32408 1-0.5l8.5-8.5-8.5-8.5c-0.18265-0.17593-0.74642-0.49746-1-0.5h-1.4998l-0.00025 1.5c-0.006 0.26399 0.31675 0.80987 0.5 1l6.5 6.5-6.5 6.5c-0.18323 0.19013-0.506 0.73601-0.5 1z" color="#000" font-family="Sans" line-height="normal"/></g></svg>