<svg xmlns="http://www.w3.org/2000/svg" xmlns:ns3="http://www.openswatchbook.org/uri/2009/osb" id="svg1" width="24" height="24" version="1.1"><title id="title13694">MyPaint symbolic icons</title><metadata id="metadata7"/><g id="layer1" transform="translate(-232 -612.36)"><g id="layer2" fill="#859f46" display="none" opacity=".5" transform="translate(229.28 556.07)"><rect id="48x48" width="48" height="48" x="-2.25" y="4.25" color="#000" display="inline"/><rect id="32x32" width="32" height="32" x="53.75" y="20.25" color="#000" display="inline"/><rect id="22x22" width="22" height="22" x="125.75" y="30.25" color="#000" display="inline"/><rect id="16x16" width="16" height="16" x="155.75" y="36.25" color="#000" display="inline"/></g><path id="path30001" fill="#bebebe" d="m248.73 613.86c-0.11827 0.0242-0.23924 0.1044-0.32812 0.1875l-6.4219 6 6.0469 6.5156 6.2344-5.8125c0.35549-0.33216 0.26759-1.0242-0.1875-1.5469l-4.1719-4.8281c-0.34131-0.39198-0.81704-0.58813-1.1719-0.51562z"/><path id="path30003" fill="#bebebe" d="m240.25 621.69-3.5156 3.2813c-0.35548 0.3321-0.31446 1.0242 0.14063 1.5468l4.2188 4.8282c0.45508 0.5226 1.0976 0.6602 1.4531 0.3281l3.7031-3.4688-6-6.5156z"/><path id="path30005" fill="#bebebe" d="m245.1 633.36c-0.6094 0-1.1 0.446-1.1 1s0.4906 1 1.1 1h2.2 6.6 1.1v-1-1h-1.1-6.6-2.2z"/><path id="path30007" fill="#bebebe" d="m237.6 633.36c0.7756 0 1.4 0.446 1.4 1s-0.6244 1-1.4 1h-4.6v-1-1h4.6z"/></g></svg>