<svg xmlns="http://www.w3.org/2000/svg" xmlns:ns3="http://www.openswatchbook.org/uri/2009/osb" id="svg1" width="24" height="24" version="1.1"><title id="title13694">MyPaint symbolic icons</title><metadata id="metadata7"/><g id="layer1" transform="translate(-360 -804.36)"><g id="layer2" fill="#859f46" display="none" opacity=".5" transform="translate(229.28 556.07)"><rect id="48x48" width="48" height="48" x="-2.25" y="4.25" color="#000" display="inline"/><rect id="32x32" width="32" height="32" x="53.75" y="20.25" color="#000" display="inline"/><rect id="22x22" width="22" height="22" x="125.75" y="30.25" color="#000" display="inline"/><rect id="16x16" width="16" height="16" x="155.75" y="36.25" color="#000" display="inline"/></g><path style="block-progression:tb;text-indent:0;text-transform:none" id="use4929-35" fill="#bebebe" d="m361 806.38v1 4a1.0001 1.0001 0 1 0 2 0v-3h4a1.0001 1.0001 0 1 0 0 -2h-5-1zm15.812 0a1.0044 1.0044 0 1 0 0.1875 2h4v3a1.0001 1.0001 0 1 0 2 0v-4-1h-1-5a1.0001 1.0001 0 0 0 -0.1875 0zm-14.93 13.96a1.0001 1.0001 0 0 0 -0.88 1.04v4 1h1 5a1.0001 1.0001 0 1 0 0 -2h-4v-3a1.0001 1.0001 0 0 0 -1.125 -1.0312zm20 0a1.0001 1.0001 0 0 0 -0.88 1.04v3h-4a1.0001 1.0001 0 1 0 0 2h5 1v-1-4a1.0001 1.0001 0 0 0 -1.125 -1.0312z" color="#000" font-family="Sans" line-height="normal" opacity=".3"/><path id="path3896-6-4-2" fill="#bebebe" d="m368 813.36h3v10h3v-14h-2z"/></g></svg>