<svg xmlns="http://www.w3.org/2000/svg" id="svg1" width="24.027" height="24" version="1.1"><title id="title13694">MyPaint symbolic icons</title><metadata id="metadata7"/><g id="layer1" transform="translate(-447.97 -812.36)"><g id="layer2" fill="#859f46" display="none" opacity=".5" transform="translate(229.28 556.07)"><rect id="48x48" width="48" height="48" x="-2.25" y="4.25" color="#000" display="inline"/><rect id="32x32" width="32" height="32" x="53.75" y="20.25" color="#000" display="inline"/><rect id="24x24" width="24" height="24" x="93.75" y="28.25" color="#000" display="inline"/><rect id="22x22" width="22" height="22" x="125.75" y="30.25" color="#000" display="inline"/><rect id="16x16" width="16" height="16" x="155.75" y="36.25" color="#000" display="inline"/></g><path style="text-indent:0;block-progression:tb;text-decoration-line:none;text-transform:none" id="path4640-8" fill="#bebebe" d="m455.48 813.42c-3.5729 0-6.4904 2.9142-6.4904 6.4829s2.9176 6.4829 6.4904 6.4829c3.5729 0 6.4904-2.9142 6.4904-6.4829s-2.9176-6.4829-6.4904-6.4829zm0 1.997c2.4922 0 4.4912 1.9966 4.4912 4.4859 0 2.4894-1.9989 4.4859-4.4912 4.4859-2.4922 0-4.4911-1.9966-4.4911-4.4859 0-2.4894 1.9989-4.4859 4.4911-4.4859z" color="#000" font-family="Sans" line-height="normal"/><path style="text-indent:0;block-progression:tb;text-decoration-line:none;text-transform:none" id="path4644-5" fill="#bebebe" d="m458.41 819.34a0.50306 0.50389 0 1 0 0.12479 1h3.931a0.49923 0.50005 0 1 0 0 -1h-3.931a0.49923 0.50005 0 0 0 -0.12479 0z" color="#000" enable-background="new" font-family="Sans" line-height="normal"/><path style="text-indent:0;block-progression:tb;text-decoration-line:none;text-transform:none" id="path5416-3" fill="#bebebe" d="m448.43 819.37a0.50136 0.50219 0 1 0 0.0935 1h3.9622a0.49923 0.50005 0 1 0 0 -1h-3.9622a0.49923 0.50005 0 0 0 -0.0935 0z" color="#000" enable-background="new" font-family="Sans" line-height="normal"/><path style="text-indent:0;block-progression:tb;text-decoration-line:none;text-transform:none" id="path5420-4" fill="#bebebe" d="m455.39 812.37a0.49923 0.50005 0 0 0 -0.40558 0.5v4.0312a0.49923 0.50005 0 1 0 0.99835 0v-4.0312a0.49923 0.50005 0 0 0 -0.59277 -0.5z" color="#000" enable-background="new" font-family="Sans" line-height="normal"/><path style="text-indent:0;block-progression:tb;text-decoration-line:none;text-transform:none" id="path5422-4" fill="#bebebe" d="m455.42 822.4a0.49923 0.50005 0 0 0 -0.43678 0.53125v3.9375a0.49923 0.50005 0 1 0 0.99835 0v-3.9375a0.49923 0.50005 0 0 0 -0.56157 -0.53125z" color="#000" enable-background="new" font-family="Sans" line-height="normal"/><ellipse id="path5428-8" cx="455.48" cy="819.87" fill="#bebebe" color="#000" enable-background="new" rx="1.498" ry="1.5"/><path id="path23141-4-2" fill="#bebebe" d="m462.5 814.36c4.5 0 7.1737 6.2431 0.39529 11.334-1.5854 1.1907-3.8953 2.6659-3.8953 5.6659 0 3.3055 4.6459 4.2082 10 4l1-1c-1.5 0.00001-9.4891 0.0816-5.5-5.5 2.446-3.4226 6.5-5.663 6.5-9.5 0-4-3-7-9-6z"/></g></svg>