<svg xmlns="http://www.w3.org/2000/svg" xmlns:ns3="http://www.openswatchbook.org/uri/2009/osb" id="svg1" width="24" height="24" version="1.1"><metadata id="metadata7"/><g id="layer1" transform="translate(-136 -596.36)"><g id="layer2" fill="#859f46" display="none" opacity=".5" transform="translate(229.28 556.07)"><rect id="48x48" width="48" height="48" x="-2.25" y="4.25" color="#000" display="inline"/><rect id="32x32" width="32" height="32" x="53.75" y="20.25" color="#000" display="inline"/><rect id="22x22" width="22" height="22" x="125.75" y="30.25" color="#000" display="inline"/><rect id="16x16" width="16" height="16" x="155.75" y="36.25" color="#000" display="inline"/></g><path id="path22405" fill="#bebebe" fill-rule="evenodd" d="m151.92 604.45-6.3303 8.4716-2.5411 2.2328l-1.05-0.84 1.4945-3.0715 6.3303-8.4716 2.0931 1.6775z"/><path id="path22407" fill="#bebebe" fill-rule="evenodd" d="m142 615.17s-2.2158 0.99996-2.1981 3.111c0.022 2.6298 3.9901 2.7576 4.115 0.42551 0.07-1.33-1.92-3.54-1.92-3.54z"/><path id="path22409" fill="#bebebe" fill-rule="evenodd" d="m145.97 602.99 6.9738 5.2765 1.0567-1.3848-2.0921-1.5829c4.2056-1.1866 7.0799-6.245 4.2904-8.3556s-7.0586 1.8926-7.0799 6.2451l-2.0922-1.583-1.0567 1.3847z"/></g></svg>