<svg xmlns="http://www.w3.org/2000/svg" id="svg1" width="24" height="24" version="1.1"><title id="title13694">MyPaint symbolic icons</title><metadata id="metadata7"/><g id="layer1" transform="translate(-120 -676.36)"><g id="layer2" fill="#859f46" display="none" opacity=".5" transform="translate(229.28 556.07)"><rect id="48x48" width="48" height="48" x="-2.25" y="4.25" color="#000" display="inline"/><rect id="32x32" width="32" height="32" x="53.75" y="20.25" color="#000" display="inline"/><rect id="24x24" width="24" height="24" x="93.75" y="28.25" color="#000" display="inline"/><rect id="22x22" width="22" height="22" x="125.75" y="30.25" color="#000" display="inline"/><rect id="16x16" width="16" height="16" x="155.75" y="36.25" color="#000" display="inline"/></g><path id="rect26194-1" fill="#bebebe" d="m134.25 677.1c-0.831 0-1.5 0.669-1.5 1.5v9c0 0.831 0.669 1.5 1.5 1.5s1.5-0.669 1.5-1.5v-9c0-0.831-0.669-1.5-1.5-1.5zm-2.5 6-3.7188 1.4688s-0.43154 0.0335-0.8125-0.0156c-4.4384-0.57172-5.507 1.9823-5.4785 3.5469s1.4775 2.2686 1.5 4c0.68502-0.81929 0.39203-1.3453 0.49024-2.4258 0.0982-1.0804 0.4866-2.1125 1.0195-2.5742 7 11 0 0.0156 7.1875 11.625 0.57546 0.8523 1.5948 1.1547 2.2812 0.65625l7.4688-5.4062c0.68643-0.4985 0.76299-1.5852 0.1875-2.4375l-5.125-7.9375v4.5c0 1-1 2-2 2h-1c-1 0-2-1-2-2v-5zm-7.5 9c0.0102 2.7643-2.5005 3.0073-2.5 4.5 0.00053 1.4927 1.4342 1.6694 2.0195 1.5195 0.58539-0.14985 1.586-0.63679 1.4551-2.0312-0.13091-1.3945-0.51865-2.3803-0.97461-3.9883z"/></g></svg>