<svg xmlns="http://www.w3.org/2000/svg" id="svg1" width="24" height="24" version="1.1"><title id="title13694">MyPaint symbolic icons</title><metadata id="metadata7"/><g id="layer1" transform="translate(-448 -876.36)"><g id="layer2" fill="#859f46" display="none" opacity=".5" transform="translate(229.28 556.07)"><rect id="48x48" width="48" height="48" x="-2.25" y="4.25" color="#000" display="inline"/><rect id="32x32" width="32" height="32" x="53.75" y="20.25" color="#000" display="inline"/><rect id="24x24" width="24" height="24" x="93.75" y="28.25" color="#000" display="inline"/><rect id="22x22" width="22" height="22" x="125.75" y="30.25" color="#000" display="inline"/><rect id="16x16" width="16" height="16" x="155.75" y="36.25" color="#000" display="inline"/></g><path id="path23141-4-2-9" fill="#bebebe" d="m457.5 878.36c4.5 0 7.1737 6.2431 0.39529 11.334-1.5854 1.1907-3.8953 2.6659-3.8953 5.6659 0 3.3055 4.6459 4.2082 10 4l1-1c-1.5 0.00001-9.4891 0.0816-5.5-5.5 2.446-3.4226 6.5-5.663 6.5-9.5 0-4-3-7-9-6z"/></g></svg>