<svg xmlns="http://www.w3.org/2000/svg" xmlns:ns3="http://www.openswatchbook.org/uri/2009/osb" id="svg1" width="24" height="24" version="1.1"><title id="title13694">MyPaint symbolic icons</title><metadata id="metadata7"/><g id="layer1" transform="translate(-120 -900.36)"><g id="layer2" fill="#859f46" display="none" opacity=".5" transform="translate(229.28 556.07)"><rect id="48x48" width="48" height="48" x="-2.25" y="4.25" color="#000" display="inline"/><rect id="32x32" width="32" height="32" x="53.75" y="20.25" color="#000" display="inline"/><rect id="22x22" width="22" height="22" x="125.75" y="30.25" color="#000" display="inline"/><rect id="16x16" width="16" height="16" x="155.75" y="36.25" color="#000" display="inline"/></g><path id="path2273-6-2-3-4" fill="#bebebe" fill-rule="evenodd" d="m140.5 901.36-1.5 1.5 2.5 2.5 1.5-1.5c0-2-0.5-2.5-2.5-2.5zm-3 3-10.5 10.5v2.5h2.5l10.5-10.5z"/><rect id="rect30216-1" width="12" height="2" x="120" y="904.36" fill="#bebebe"/><rect id="rect30218-7" width="6" height="2" x="120" y="909.36" fill="#bebebe"/><rect id="rect30220-0" width="5" height="2" x="120" y="914.36" fill="#bebebe"/><rect id="rect30222-5" width="18" height="2" x="120" y="919.36" fill="#bebebe"/></g></svg>