<svg xmlns="http://www.w3.org/2000/svg" id="svg7384" width="24" height="24" version="1.1"><metadata id="metadata90"/><title id="title9167">Gnome Symbolic Icon Theme</title><path style="isolation:auto;mix-blend-mode:normal;solid-color:#000" id="path3388" fill="#bebebe" d="m12 2-4 3.5v0.5l3-0.00194v4h-4v-2.9981h-0.5l-3.5 3.998 3.5 4.002h0.5v-3.0019h4v4.002h-3v0.5l4 3.5 4-3.5v-0.5h-3v-4.0019l4 0.0078v2.994h0.5l3.5-4.002-3.5-3.998h-0.5v3.0059l-4-0.0078v-4l3 0.0019v-0.5zm-7 17-4 4h17l4-4h-7l-2.2344 1.8613c-0.39029 0.3254-0.95736 0.3254-1.3477 0l-2.2344-1.861z" color="#000" color-rendering="auto" image-rendering="auto" shape-rendering="auto"/></svg>