<svg xmlns="http://www.w3.org/2000/svg" xmlns:ns3="http://www.openswatchbook.org/uri/2009/osb" id="svg1" width="24" height="24" version="1.1"><title id="title13694">MyPaint symbolic icons</title><metadata id="metadata7"/><g id="layer1" transform="translate(-232 -516.36)"><g id="layer2" fill="#859f46" display="none" opacity=".5" transform="translate(229.28 556.07)"><rect id="48x48" width="48" height="48" x="-2.25" y="4.25" color="#000" display="inline"/><rect id="32x32" width="32" height="32" x="53.75" y="20.25" color="#000" display="inline"/><rect id="22x22" width="22" height="22" x="125.75" y="30.25" color="#000" display="inline"/><rect id="16x16" width="16" height="16" x="155.75" y="36.25" color="#000" display="inline"/></g><rect id="rect4505-4-4-1" width="22" height="2" x="233" y="537.36" fill="#bebebe" color="#000" rx="0" ry=".707"/><path id="path4760-2" fill="#bebebe" d="m240.75 516.36 1.25 5h5l1-5z" color="#000"/><path id="path5783-3" fill="#bebebe" d="m249 526.86c0 0.72415-0.17104 1.7904-0.47496 2.9379-0.73908 2.7907-3.025 6.5621-4.525 6.5621 0-4.5-1.9643-5.548-2.7855-6.425-0.7533-0.80452-1.2145-1.8859-1.2145-3.075 0-2.4853 2.0147-4.5 4.5-4.5s4.5 2.0147 4.5 4.5z" color="#000"/></g></svg>