<svg xmlns="http://www.w3.org/2000/svg" xmlns:ns3="http://www.openswatchbook.org/uri/2009/osb" id="svg1" width="24" height="24" version="1.1"><title id="title13694">MyPaint symbolic icons</title><metadata id="metadata7"/><g id="layer1" transform="translate(-232 -580.36)"><path id="path12660" fill="#bebebe" d="m254 581.36c-10.493 0-19 8.5066-19 19h2c0-9.3888 7.6112-17 17-17v-2z" color="#000"/><path id="path12061-8-45-2-6-5" fill="#bebebe" d="m254 589.36c-6.0678 0-11 4.9322-11 11h2c0-4.9631 4.0369-9 9-9v-2z" color="#000"/><rect id="rect4505-6-1-1" width="21" height="2" x="233.5" y="601.36" fill="#bebebe" color="#000" rx="0"/><path id="path5485" fill="#bebebe" d="m254 584.36c-8.8366 0-16 7.1634-16 16h4c0-6.6274 5.3726-12 12-12v-4z" color="#000"/><g id="layer2" fill="#859f46" display="none" opacity=".5" transform="translate(229.28 556.07)"><rect id="48x48" width="48" height="48" x="-2.25" y="4.25" color="#000" display="inline"/><rect id="32x32" width="32" height="32" x="53.75" y="20.25" color="#000" display="inline"/><rect id="22x22" width="22" height="22" x="125.75" y="30.25" color="#000" display="inline"/><rect id="16x16" width="16" height="16" x="155.75" y="36.25" color="#000" display="inline"/></g></g></svg>