<svg xmlns="http://www.w3.org/2000/svg" xmlns:ns3="http://www.openswatchbook.org/uri/2009/osb" id="svg1" width="24" height="24" version="1.1"><title id="title13694">MyPaint symbolic icons</title><metadata id="metadata7"/><g id="layer1" transform="translate(-360 -612.36)"><g id="layer2" fill="#859f46" display="none" opacity=".5" transform="translate(229.28 556.07)"><rect id="48x48" width="48" height="48" x="-2.25" y="4.25" color="#000" display="inline"/><rect id="32x32" width="32" height="32" x="53.75" y="20.25" color="#000" display="inline"/><rect id="22x22" width="22" height="22" x="125.75" y="30.25" color="#000" display="inline"/><rect id="16x16" width="16" height="16" x="155.75" y="36.25" color="#000" display="inline"/></g><path style="block-progression:tb;text-indent:0;text-transform:none" id="use3789-0-5" fill="#bebebe" d="m361 614.38v1 4a1.0001 1.0001 0 1 0 2 0v-3h4a1.0001 1.0001 0 1 0 0 -2h-5-1zm15.812 0a1.0044 1.0044 0 1 0 0.1875 2h4v3a1.0001 1.0001 0 1 0 2 0v-4-1h-1-5a1.0001 1.0001 0 0 0 -0.1875 0zm-14.93 13.96a1.0001 1.0001 0 0 0 -0.88 1.04v4 1h1 5a1.0001 1.0001 0 1 0 0 -2h-4v-3a1.0001 1.0001 0 0 0 -1.125 -1.0312zm20 0a1.0001 1.0001 0 0 0 -0.88 1.04v3h-4a1.0001 1.0001 0 1 0 0 2h5 1v-1-4a1.0001 1.0001 0 0 0 -1.125 -1.0312z" color="#000" font-family="Sans" line-height="normal" opacity=".3"/><path id="path3228-0-7" fill="#bebebe" d="m372 614.36v8h0.5l3.5-4-3.5-4z"/><path style="block-progression:tb;text-indent:0;text-transform:none" id="path3081-9" fill="#bebebe" d="m378.98 624.17a1.0001 1.0001 0 0 0 -1.9688 0.1875c0 2.7733-2.2424 5.0156-5.0156 5.0156-2.7733 0-5.0156-2.2424-5.0156-5.0156 0-2.7733 2.2424-5.0156 5.0156-5.0156 0.43696 0 0.89043 0.0744 1.3125 0.1875a1.0001 1.0001 0 1 0 0.51562 -1.9219c-0.59089-0.15832-1.2164-0.23437-1.8281-0.23437-3.8542 0-6.9844 3.1302-6.9844 6.9844s3.1302 6.9844 6.9844 6.9844 6.9844-3.1302 6.9844-6.9844a1.0001 1.0001 0 0 0 0 -0.1875z" color="#000" font-family="Sans" line-height="normal"/></g></svg>