<svg xmlns="http://www.w3.org/2000/svg" xmlns:ns3="http://www.openswatchbook.org/uri/2009/osb" id="svg1" width="24" height="24" version="1.1"><title id="title13694">MyPaint symbolic icons</title><metadata id="metadata7"/><g id="layer1" transform="translate(-40 -708.36)"><g id="layer2" fill="#859f46" display="none" opacity=".5" transform="translate(229.28 556.07)"><rect id="48x48" width="48" height="48" x="-2.25" y="4.25" color="#000" display="inline"/><rect id="32x32" width="32" height="32" x="53.75" y="20.25" color="#000" display="inline"/><rect id="22x22" width="22" height="22" x="125.75" y="30.25" color="#000" display="inline"/><rect id="16x16" width="16" height="16" x="155.75" y="36.25" color="#000" display="inline"/></g><path id="path6331" fill="#bebebe" fill-rule="evenodd" d="m54.311 722.9-1.5845 4.5332c-0.41924 1.2312 1.2997 1.8893 1.7358 0.61268l1.7599-4.4986z"/><path id="path6315" fill="#bebebe" fill-rule="evenodd" d="m53.305 716.81 0.79348 1.1876 5.9242 2.4359 1.5611-0.51192 1.9892-5.5319c-2.5 0-0.5-6.0323-7-6.0323l-3.268 8.4527z"/><path id="path5211" fill="#bebebe" fill-rule="evenodd" d="m54 719.43-0.70159 2.0108 5 1.9094 0.70159-1.9094z"/><path style="block-progression:tb;text-indent:0;text-transform:none" id="path6270" fill="#bebebe" d="m41.406 709.34 0.6875 0.84375s3.2888 4.0212 5.125 8.2188c0.91812 2.0988 1.4433 4.2035 1.0938 5.8125-0.3496 1.609-1.461 2.815-4.25 3.2812l0.1875 1c3.0416-0.50843 4.6334-2.0878 5.0625-4.0625 0.42907-1.9747-0.19726-4.2453-1.1562-6.4375-1.6182-3.6991-3.8989-6.6598-4.6875-7.6562l10.531 0.05v-1l-11.531-0.0312h-1.0625z" color="#000" font-family="Sans" line-height="normal"/><path id="rect6272" fill="#bebebe" fill-rule="evenodd" d="m41 727.36h4v4.0215h-4z" color="#000"/><path style="block-progression:tb;text-indent:0;text-transform:none" id="path18601" fill="#bebebe" d="m42 729.38v1h9v-1h-9z" color="#000" font-family="Sans" line-height="normal"/><rect id="rect18603" width="4" height="4.021" x="41" y="708.37" fill="#bebebe"/></g></svg>