<svg xmlns="http://www.w3.org/2000/svg" xmlns:ns3="http://www.openswatchbook.org/uri/2009/osb" id="svg1" width="24" height="24" version="1.1"><title id="title13694">MyPaint symbolic icons</title><metadata id="metadata7"/><g id="layer1" transform="translate(-360 -516.36)"><g id="layer2" fill="#859f46" display="none" opacity=".5" transform="translate(229.28 556.07)"><rect id="48x48" width="48" height="48" x="-2.25" y="4.25" color="#000" display="inline"/><rect id="32x32" width="32" height="32" x="53.75" y="20.25" color="#000" display="inline"/><rect id="22x22" width="22" height="22" x="125.75" y="30.25" color="#000" display="inline"/><rect id="16x16" width="16" height="16" x="155.75" y="36.25" color="#000" display="inline"/></g><path id="path5014-8-1" fill="#bebebe" d="m364 539.86c-1 0-1.5-1-1.5-2s0.5-2 1.5-2h15.5c1 0 2.5-1 2.5-2v4c0 1-1 2-2 2z" color="#000" opacity=".3"/><path id="rect24024-5-7-1-7-8-2-5-87-3-7-8" fill="#bebebe" d="m363.5 517.36c-0.5 0-1.5 0.5-1.5 1.5v20c0 1 1 1.5 1.5 1.5h16.5c1 0 2-1 2-2v-1c0 1-1 2-2 2h-15.5c-1 0-1.5-0.50001-1.5-1.5 0-1 0.5-1.5 1.5-1.5h15.5c1 0 2-0.99999 2-2v-15c0-0.99999-1-2-2-2zm3.5 3h3v6.5l6.5-6.5h1.5v13h-1.5l-6.5-6.5v6.5h-3z" color="#000"/></g></svg>