<svg xmlns="http://www.w3.org/2000/svg" xmlns:svg="http://www.w3.org/2000/svg" xmlns:xlink="http://www.w3.org/1999/xlink" id="svg6034" width="26.037" height="26" version="1.1"><defs id="defs6036"><linearGradient id="linearGradient3628" x1="22.453" x2="23.615" y1="170.378" y2="164.955" gradientTransform="translate(1.863401,-1.999999)" gradientUnits="userSpaceOnUse" xlink:href="#linearGradient5734"/><linearGradient id="linearGradient5734"><stop id="stop5736" offset="0" stop-color="#8ab3df" stop-opacity="1"/><stop id="stop5738" offset="1" stop-color="#fff" stop-opacity="1"/></linearGradient><linearGradient id="linearGradient5670" x1="19.576" x2="21.932" y1="167.067" y2="169.579" gradientTransform="translate(1,-1.24044)" gradientUnits="userSpaceOnUse" xlink:href="#linearGradient5704-54"/><linearGradient id="linearGradient5704-54"><stop id="stop5706-3" offset="0" stop-color="#5a5a5a" stop-opacity="1"/><stop id="stop5708-12" offset="1" stop-color="#000" stop-opacity="1"/></linearGradient><linearGradient id="linearGradient4369" x1="15" x2="13.849" y1="177.442" y2="175.947" gradientTransform="matrix(1,0,0,0.973548,1.5,3.761392)" gradientUnits="userSpaceOnUse" xlink:href="#linearGradient5734"/><linearGradient id="linearGradient4360" x1="14.02" x2="15.847" y1="174.942" y2="178.022" gradientTransform="matrix(1,0,0,0.973548,1.5,3.761392)" gradientUnits="userSpaceOnUse" xlink:href="#linearGradient5704-54"/><linearGradient id="linearGradient4343"><stop id="stop4345" offset="0" stop-color="#fff9f9" stop-opacity="1"/><stop id="stop4347" offset="1" stop-color="#fff9f9" stop-opacity="0"/></linearGradient><linearGradient id="linearGradient7221" x1="-13.06" x2="-10.528" y1="332.077" y2="335.031" gradientTransform="translate(41.8634,-175.7596)" gradientUnits="userSpaceOnUse" xlink:href="#linearGradient4343"/><linearGradient id="linearGradient3199" x1="-13.06" x2="-10.528" y1="332.077" y2="335.031" gradientTransform="translate(308.69307,174.54724)" gradientUnits="userSpaceOnUse" xlink:href="#linearGradient4343"/><linearGradient id="linearGradient3204" x1="15" x2="13.849" y1="177.442" y2="175.947" gradientTransform="matrix(1,0,0,0.973548,268.32967,354.06823)" gradientUnits="userSpaceOnUse" xlink:href="#linearGradient5734"/><linearGradient id="linearGradient3206" x1="14.02" x2="15.847" y1="174.942" y2="178.022" gradientTransform="matrix(1,0,0,0.973548,268.32967,354.06823)" gradientUnits="userSpaceOnUse" xlink:href="#linearGradient5704-54"/><linearGradient id="linearGradient3210" x1="22.453" x2="23.615" y1="170.378" y2="164.955" gradientTransform="translate(268.69307,348.30684)" gradientUnits="userSpaceOnUse" xlink:href="#linearGradient5734"/><linearGradient id="linearGradient3212" x1="19.576" x2="21.932" y1="167.067" y2="169.579" gradientTransform="translate(267.82967,349.0664)" gradientUnits="userSpaceOnUse" xlink:href="#linearGradient5704-54"/></defs><metadata id="metadata6039"/><g id="layer1" transform="translate(-276.82967,-504.30684)"><path id="path3620" fill="url(#linearGradient3210)" fill-opacity="1" fill-rule="evenodd" stroke="url(#linearGradient3212)" stroke-linecap="round" stroke-linejoin="round" stroke-opacity="1" stroke-width="1" d="m 295.69307,513.30684 -7.8634,8 -3,2 -1,-1 2,-3 7.8634,-8 2,2 z"/><rect fill="none" style="marker:none" id="rect3581" width="24" height="24" x="277.83" y="505.307" stroke="none" stroke-width="1" color="#000" display="inline"/><path id="path4352" fill="url(#linearGradient3204)" fill-opacity="1" fill-rule="evenodd" stroke="url(#linearGradient3206)" stroke-linecap="round" stroke-linejoin="round" stroke-opacity="1" stroke-width="1" d="m 283.9807,523.80684 c 0,0 -2.15103,1.6058 -2.15103,3.5529 0,1.9471 3,1.9471 3,0 0,-1.9471 -0.84897,-3.5529 -0.84897,-3.5529 z"/><path id="path4372" fill="none" stroke="#fff" stroke-dasharray="none" stroke-linecap="round" stroke-linejoin="miter" stroke-miterlimit="4" stroke-opacity="1" stroke-width=".6" d="m 286.82967,519.30684 7,-7"/><path id="path3583" fill="#000" fill-opacity="1" fill-rule="evenodd" stroke="#000" stroke-linecap="round" stroke-linejoin="round" stroke-opacity="1" stroke-width="1" d="m 291.82967,510.30684 5,5 1,-1 -1.5,-1.5 c 3.5,-0.5 6.3634,-4.2596 4.3634,-6.2596 -2,-2 -5.8634,0.7596 -6.3634,4.2596 l -1.5,-1.5 -1,1 z"/><path id="path4341" fill="url(#linearGradient3199)" fill-opacity="1" fill-rule="evenodd" stroke="none" d="m 294.82967,510.30684 c -0.40639,-0.2032 0.15657,-1.7676 1.5,-3 1.83949,-1.6846 3.33144,-1.1712 3.3634,-0.7596 0.1366,1.7596 -2.8634,4.7596 -4.8634,3.7596 z"/></g></svg>